<?xml version="1.0" encoding="utf-8"?>
<!-- Generator: Adobe Illustrator 21.1.0, SVG Export Plug-In . SVG Version: 6.00 Build 0)  -->
<svg version="1.1" id="Layer_1" xmlns="http://www.w3.org/2000/svg" xmlns:xlink="http://www.w3.org/1999/xlink" x="0px" y="0px"
	 viewBox="0 0 512.1 268" style="enable-background:new 0 0 512.1 268;" xml:space="preserve">
<style type="text/css">
	.st0{stroke:#000000;stroke-width:0.75;stroke-miterlimit:10;}
	.st1{stroke:#000000;stroke-width:2;stroke-miterlimit:10;}
	.st2{display:none;stroke:#000000;stroke-width:0.75;stroke-miterlimit:10;}
	.st3{fill:#FFFFFF;}
	.st4{display:none;}
	.st5{stroke:#000000;stroke-width:4;stroke-miterlimit:10;}
	.st6{stroke:#000000;stroke-width:0.5;stroke-miterlimit:10;}
	.st7{fill:#FFFFFF;stroke:#000000;stroke-width:0.75;stroke-miterlimit:10;}
	.st8{fill:#654EA1;}
	.st9{fill:#039B76;}
	.st10{stroke:#FFFFFF;stroke-width:0.75;stroke-miterlimit:10;}
	.st11{fill:#F7E503;}
	.st12{fill:#D63434;}
	.st13{fill:#2751D8;}
</style>
<g id="Layer_2" class="st4">
</g>
<rect class="st0" width="512.1" height="268"/>
<g>
	<g>
		<g>
			<path class="st3" d="M149.5,146.9l28.1,61.8c0.8,1.4,1.4,3.7,1.4,4.3c0,1.1-0.8,1.9-2.4,1.9h-20.4c-1.6,0-3-0.8-3.5-1.9
				l-29.1-63.3c-0.2-0.3-0.5-0.5-0.9-0.5H81.3c-0.5,0-0.9,0.3-1,0.8L68,211.6c-0.3,1.6-2.2,3.3-3.8,3.3H46.8c-1.6,0-2.7-1.4-2.7-2.7
				c0-0.5,0.5-3.3,2.7-11.7L80,40c0.3-1.2,1.2-2.6,3.2-2.7h64.2c35.6,0,53.6,20.1,53.6,47.6C201,114.9,180.6,140.7,149.5,146.9z
				 M99.6,58.8l-15.1,69.8c-0.1,0.6,0.4,1.2,1,1.2h39.9c25.6,0,51.6-17.2,51.6-44.9c0.3-16.6-9.8-26.9-33.4-26.9h-43
				C100.1,58,99.7,58.3,99.6,58.8z"/>
			<path class="st3" d="M232,210.8c-0.2,1.6-3.5,4.1-5.1,4.1l-14.7,0c-1.6,0-3.8-2.4-3.8-3.7c0-0.8,0.4-3,0.9-5.6l12.2-69.3
				c0.5-1.7,3.4-3.9,5-3.9l14.8,0c1.6,0,3.7,1.8,3.5,3.2L232,210.8z"/>
			<path class="st3" d="M317.9,113l-16.6,97.2c-0.3,1.6-3.8,4.8-5.4,4.8l-14.8,0.2c-1.6,0-3.8-3.1-3.8-4.5c0-0.5,0.3-1.9,0.5-3.3
				l16-94.5h-21.7c-1.6,0-3.3-2.2-3-3.8l2.4-13.1c0.3-1.6,3-3.8,4.6-3.8H298l4.4-20c5.7-30.2,13.8-36.8,41.8-33.7
				c9.5,1,17.7,2.7,21.8,4.9c2.4,1.4,4.3,2.7,1.6,7.9l-4.6,9.2c-1.1,2.2-2.8,1.9-5.2,1.4c-3.5-1.4-8.4-2.3-12.8-2.7
				c-8.8-0.8-15.4-3.6-18.7,13l-4.4,20h46.8l4.9-25.3c0.3-1.6,4.1-4.6,5.7-4.6h14.7c1.6,0,3.8,3,3.5,4.6l-4.9,25.3h21.6
				c1.6,0,3,1.9,3,3.5c0,0.3-0.3,1.9-0.5,3.3l-1.9,10.1c-0.3,1.6-3,3.8-4.6,3.8h-21.6l-10.1,62.7c-0.5,3-1.1,6.5-1.1,8.7
				c0,10.1,6.5,10.5,13.3,10.5c5.4,0,11.2-0.9,15.8-3.4c3-1.6,4.4-0.3,5.2,1.9c0,0,3.3,15,0.5,16.3c-6,3.3-18.8,4.8-29.1,4.8
				c-18,0-29.6-8.2-29.6-25.8c0-3.5,0.3-9,1.1-13.1l10.1-62.7H317.9z"/>
		</g>
		<g>
			<path class="st3" d="M447.5,102.5c0.6-0.3,0.6-0.8,0-1.1c-0.6-0.3-15-7.5-15-7.5c-2.4-1.3-2.4-1.7-2.4-3.9l-1-12.9
				c0-1.1,0.6-1.5,1.1-1.5c0.6,0,1.7,0.6,2.4,0.9c0,0,37.5,18.3,41.5,22.1c2.1,2.1,2.2,4.6,0,6.6c-3.8,3.5-41.5,21.4-41.5,21.4
				c-0.7,0.4-1.8,0.9-2.4,0.9c-0.6,0-1.1-0.4-1.1-1.5l1-12.9c0-2.2,0-2.6,2.4-3.9C432.6,109.4,446.9,102.8,447.5,102.5z"/>
		</g>
	</g>
</g>
<path class="st3" d="M253,102c0,8.9-7.2,16-16,16s-16-7.2-16-16s8.2-16,17-16S253,93.1,253,102z"/>
</svg>
