<?xml version="1.0" encoding="utf-8"?>
<!-- Generator: Adobe Illustrator 21.1.0, SVG Export Plug-In . SVG Version: 6.00 Build 0)  -->
<svg version="1.1" id="Layer_1" xmlns="http://www.w3.org/2000/svg" xmlns:xlink="http://www.w3.org/1999/xlink" x="0px" y="0px"
	 viewBox="0 0 431.5 185.5" style="enable-background:new 0 0 431.5 185.5;" xml:space="preserve">
<style type="text/css">
	.st0{stroke:#000000;stroke-width:0.75;stroke-miterlimit:10;}
	.st1{stroke:#000000;stroke-width:2;stroke-miterlimit:10;}
	.st2{stroke:#000000;stroke-width:4;stroke-miterlimit:10;}
	.st3{fill:#FFFFFF;}
	.st4{stroke:#000000;stroke-width:0.5;stroke-miterlimit:10;}
	.st5{fill:#B2B2B2;}
	.st6{fill:#232323;}
	.st7{display:none;}
	.st8{display:inline;}
	.st9{display:inline;fill:#232323;}
</style>
<g id="og">
	<path class="st0" d="M-584,103.6v0.3c0,0,4.1,4.9,7.6,11.2l24.5,43c0.8,1.4,1.4,3.7,1.4,4.3c0,1.1-0.8,1.9-2.4,1.9h-20.4
		c-1.6,0-3-0.8-3.5-1.9l-31-56.2c-0.2-0.3-0.5-0.5-0.9-0.5h-41.3c-0.5,0-0.9,0.3-1,0.8l-10.5,54.6c-0.3,1.6-2.2,3.3-3.8,3.3h-17.4
		c-1.6,0-2.7-1.4-2.7-2.7c0-0.5,0.5-3.3,0.8-4.6L-655,3.3c0.3-1.6,2.2-3.3,3.8-3.3h64.2c35.6,0,53.6,20.1,53.6,47.6
		C-533.4,77.5-553,97.4-584,103.6z M-634.7,21.5L-646.9,85c-0.1,0.6,0.4,1.2,1,1.2h39.9c25.6,0,48.7-10.9,48.7-38.6
		c0.3-16.6-9.8-26.9-33.4-26.9h-43C-634.2,20.7-634.6,21-634.7,21.5z"/>
	<path class="st0" d="M-501.5,160c-0.2,1.6-3.5,4.2-5.1,4.2l-14.7,0c-1.6,0-3.8-2.5-3.8-3.8c0-0.8,0.4-3.1,0.9-5.8l12.1-67.3
		c0.5-1.7,3.4-4,5-4l14.8,0c1.6,0,3.7,1.9,3.5,3.3L-501.5,160z"/>
	<path class="st0" d="M-420.6,62.4l-16.6,97.2c-0.3,1.6-3.8,4.8-5.4,4.8l-14.8,0.2c-1.6,0-3.8-3.1-3.8-4.5c0-0.5,0.3-1.9,0.5-3.3
		l16-94.5h-14.7c-1.6,0-3.3-2.2-3-3.8l2.4-13.1c0.3-1.6,3-3.8,4.6-3.8h14.7l5.2-26.1c5.7-30.2,13.6-36.7,41.6-33.6
		c9.5,1,17.7,2.7,21.8,4.9c2.4,1.4,3,2.4,3,3.8c0,1.1-0.3,1.9-1.4,4.1l-4.6,9.2c-1.1,2.2-2.8,1.9-5.2,1.4c-3.5-1.4-8.4-2.3-12.8-2.7
		c-8.8-0.8-15.2-3.7-18.5,12.9l-5.2,26.1h46.8l4.9-25.3c0.3-1.6,4.1-4.6,5.7-4.6h14.7c1.6,0,3.8,3,3.5,4.6l-4.9,25.3h28.6
		c1.6,0,3,1.9,3,3.5c0,0.3-0.3,1.9-0.5,3.3l-1.9,10.1c-0.3,1.6-3,3.8-4.6,3.8h-28.6l-10.1,62.7c-0.5,3-1.1,6.5-1.1,8.7
		c0,10.1,6.5,10.5,13.3,10.5c5.4,0,11.2-0.9,15.8-3.4c3-1.6,4.4-0.3,5.2,1.9c0,0,3.3,15,0.5,16.3c-6,3.3-18.8,4.8-29.1,4.8
		c-18,0-29.6-8.2-29.6-25.8c0-3.5,0.3-9,1.1-13.1l10.1-62.7H-420.6z"/>
</g>
<g id="Black_on_white">
	<g>
		<g>
			<path class="st1" d="M-512,394.1c0.6-0.3,0.6-0.8,0-1.1c-0.6-0.3-14-7.5-14-7.5c-1.2-0.6-2.2-2.9-2.4-3.9l-2-12.9
				c0-1.1,0.6-1.5,1.1-1.5c0.6,0,1.7,0.6,2.4,0.9c0,0,37.5,18.3,41.5,22.1c2.1,2.1,2.2,4.6,0,6.6c-3.8,3.5-41.5,21.4-41.5,21.4
				c-0.7,0.4-1.8,0.9-2.4,0.9c-0.6,0-1.1-0.4-1.1-1.5l2-12.9c0.4-1.4,1.2-3,2.4-3.9C-525.9,401-512.6,394.4-512,394.1z"/>
		</g>
		<g>
			<path class="st1" d="M-295.3,394.1c0.6-0.3-4.4-0.8-5-1.1c-0.6-0.3-14-7.5-14-7.5c-1.2-0.6-2.2-2.9-2.4-3.9l-2-12.9
				c0-1.1,0.6-1.5,1.1-1.5c0.6,0,1.7,0.6,2.4,0.9c0,0,37.5,18.3,41.5,22.1c2.1,2.1,2.2,4.6,0,6.6c-3.8,3.5-41.5,21.4-41.5,21.4
				c-0.7,0.4-1.8,0.9-2.4,0.9c-0.6,0-1.1-0.4-1.1-1.5l2-12.9c0.4-1.4,1.2-3,2.4-3.9C-314.3,401-295.9,394.4-295.3,394.1z"/>
		</g>
		<g>
			<g>
				<path class="st2" d="M-596,447.6v0.3c0,0,4.1,4.9,7.6,11.2l24.5,43c0.8,1.4,1.4,3.7,1.4,4.3c0,1.1-0.8,1.9-2.4,1.9h-20.4
					c-1.6,0-3-0.8-3.5-1.9l-31-56.2c-0.2-0.3-0.5-0.5-0.9-0.5h-41.3c-0.5,0-0.9,0.3-1,0.8l-10.5,54.6c-0.3,1.6-2.2,3.3-3.8,3.3
					h-17.4c-1.6,0-2.7-1.4-2.7-2.7c0-0.5,0.5-3.3,0.8-4.6l29.6-153.6c0.3-1.6,2.2-3.3,3.8-3.3h64.2c35.6,0,53.6,20.1,53.6,47.6
					C-545.4,421.5-565,441.4-596,447.6z M-646.7,365.5l-12.1,63.6c-0.1,0.6,0.4,1.2,1,1.2h39.9c25.6,0,48.7-10.9,48.7-38.6
					c0.3-16.6-9.8-26.9-33.4-26.9h-43C-646.2,364.7-646.6,365-646.7,365.5z"/>
				<path class="st2" d="M-513.5,504c-0.2,1.6-3.5,4.2-5.1,4.2l-14.7,0c-1.6,0-3.8-2.5-3.8-3.8c0-0.8,0.4-3.1,0.9-5.8l12.1-67.3
					c0.5-1.7,3.4-4,5-4l14.8,0c1.6,0,3.7,1.9,3.5,3.3L-513.5,504z"/>
				<path class="st2" d="M-432.6,406.4l-16.6,97.2c-0.3,1.6-3.8,4.8-5.4,4.8l-14.8,0.2c-1.6,0-3.8-3.1-3.8-4.5
					c0-0.5,0.3-1.9,0.5-3.3l16-94.5h-14.7c-1.6,0-3.3-2.2-3-3.8l2.4-13.1c0.3-1.6,3-3.8,4.6-3.8h14.7l5.2-26.1
					c5.7-30.2,13.6-36.7,41.6-33.6c9.5,1,17.7,2.7,21.8,4.9c2.4,1.4,3,2.4,3,3.8c0,1.1-0.3,1.9-1.4,4.1l-4.6,9.2
					c-1.1,2.2-2.8,1.9-5.2,1.4c-3.5-1.4-8.4-2.3-12.8-2.7c-8.8-0.8-15.2-3.7-18.5,12.9l-5.2,26.1h46.8l4.9-25.3
					c0.3-1.6,4.1-4.6,5.7-4.6h14.7c1.6,0,3.8,3,3.5,4.6l-4.9,25.3h28.6c1.6,0,3,1.9,3,3.5c0,0.3-0.3,1.9-0.5,3.3l-1.9,10.1
					c-0.3,1.6-3,3.8-4.6,3.8h-28.6l-10.1,62.7c-0.5,3-1.1,6.5-1.1,8.7c0,10.1,6.5,10.5,13.3,10.5c5.4,0,11.2-0.9,15.8-3.4
					c3-1.6,4.4-0.3,5.2,1.9c0,0,3.3,15,0.5,16.3c-6,3.3-18.8,4.8-29.1,4.8c-18,0-29.6-8.2-29.6-25.8c0-3.5,0.3-9,1.1-13.1l10.1-62.7
					H-432.6z"/>
			</g>
		</g>
	</g>
	<rect x="-699.7" y="524.9" style="fill:none;" width="418" height="26"/>
	<text transform="matrix(1 0 0 1 -699.6667 543.5791)" style="font-family:'Brother-1816-Bold'; font-size:26px;">MADE IN THE HELDEBERGSv</text>
</g>
<g id="Little_sticker_2">
	<polygon class="st0" points="625.6,712.1 291.7,712.5 292.5,677.9 172.6,675.9 213,476.5 631,477.2 	"/>
	<path class="st0" d="M625.6,716.1c-4,0.8-336.9,1.6-337.7-0.8c-2.2-6.6-3.2-37-3.2-37s-101.3-1.6-115,0.8
		c-7.2,1.3,31.4-190.4,38-195.7c9.5-7.7,118.9,1.5,125.2,5.2c9.6,5.6,23.3,20.9,23.3,20.9s32.2,17.7,45.2,17.3
		c11.9-0.3,22.5-9.6,22.5-9.6s9.5-43.9,19.9-50.3c13.9-8.5,53.9-1.6,64.3,5.6c14.3,9.9,13.9,14.9,13.9,14.9l37.8,16.1
		c0,0,73,38.2,72.2,45.4C630,567.2,634.1,714.4,625.6,716.1z"/>
	<g>
		<g>
			<path class="st3" d="M374,551.8c0.6-0.3,0.6-0.8,0-1.1c-0.6-0.3-15-7.5-15-7.5c-2.4-1.3-2.4-1.7-2.4-3.9l-1-12.9
				c0-1.1,0.6-1.5,1.1-1.5c0.6,0,1.7,0.6,2.4,0.9c0,0,37.5,18.3,41.5,22.1c2.1,2.1,2.2,4.6,0,6.6c-3.8,3.5-41.5,21.4-41.5,21.4
				c-0.7,0.4-1.8,0.9-2.4,0.9c-0.6,0-1.1-0.4-1.1-1.5l1-12.9c0-2.2,0-2.6,2.4-3.9C359,558.7,373.4,552.1,374,551.8z"/>
		</g>
		<g>
			<g>
				<path class="st3" d="M294,597.9l28.1,61.8c0.8,1.4,1.4,3.7,1.4,4.3c0,1.1-0.8,1.9-2.4,1.9h-20.4c-1.6,0-3-0.8-3.5-1.9
					l-29.1-63.3c-0.2-0.3-0.5-0.5-0.9-0.5h-41.3c-0.5,0-0.9,0.3-1,0.8l-12.4,61.7c-0.3,1.6-2.2,3.3-3.8,3.3h-17.4
					c-1.6,0-2.7-1.4-2.7-2.7c0-0.5,0.5-3.3,2.7-11.7L224.5,491c0.3-1.2,1.2-2.6,3.2-2.7h64.2c35.6,0,53.6,20.1,53.6,47.6
					C345.4,565.9,325,591.7,294,597.9z M244.1,509.8L229,579.7c-0.1,0.6,0.4,1.2,1,1.2h39.9c25.6,0,51.6-17.2,51.6-44.9
					c0.3-16.6-9.8-26.9-33.4-26.9h-43C244.6,509,244.2,509.4,244.1,509.8z"/>
				<path class="st3" d="M372.4,661.8c-0.2,1.6-3.5,4.1-5.1,4.1l-14.7,0c-1.6,0-3.8-2.4-3.8-3.7c0-0.8,0.4-3,0.9-5.6l12.2-65.3
					c0.5-1.7,3.4-3.9,5-3.9l14.8,0c1.6,0,3.7,1.8,3.5,3.2L372.4,661.8z"/>
				<path class="st3" d="M453.4,564.1l-16.6,97.2c-0.3,1.6-3.8,4.8-5.4,4.8l-14.8,0.2c-1.6,0-3.8-3.1-3.8-4.5c0-0.5,0.3-1.9,0.5-3.3
					l16-94.5h-14.7c-1.6,0-3.3-2.2-3-3.8l2.4-13.1c0.3-1.6,3-3.8,4.6-3.8h14.7l4.4-20c5.7-30.2,13.8-36.8,41.8-33.7
					c9.5,1,17.7,2.7,21.8,4.9c2.4,1.4,4.3,2.7,1.6,7.9l-4.6,9.2c-1.1,2.2-2.8,1.9-5.2,1.4c-3.5-1.4-8.4-2.3-12.8-2.7
					c-8.8-0.8-15.4-3.6-18.7,13l-4.4,20h46.8l4.9-25.3c0.3-1.6,4.1-4.6,5.7-4.6h14.7c1.6,0,3.8,3,3.5,4.6l-4.9,25.3h28.6
					c1.6,0,3,1.9,3,3.5c0,0.3-0.3,1.9-0.5,3.3l-1.9,10.1c-0.3,1.6-3,3.8-4.6,3.8h-28.6L514,626.7c-0.5,3-1.1,6.5-1.1,8.7
					c0,10.1,6.5,10.5,13.3,10.5c5.4,0,11.2-0.9,15.8-3.4c3-1.6,4.4-0.3,5.2,1.9c0,0,3.3,15,0.5,16.3c-6,3.3-18.8,4.8-29.1,4.8
					c-18,0-29.6-8.2-29.6-25.8c0-3.5,0.3-9,1.1-13.1l10.1-62.7H453.4z"/>
			</g>
			<g>
				<path class="st3" d="M586,551.8c0.6-0.3,0.6-0.8,0-1.1c-0.6-0.3-15-7.5-15-7.5c-2.4-1.3-2.4-1.7-2.4-3.9l-1-12.9
					c0-1.1,0.6-1.5,1.1-1.5c0.6,0,1.7,0.6,2.4,0.9c0,0,37.5,18.3,41.5,22.1c2.1,2.1,2.2,4.6,0,6.6c-3.8,3.5-41.5,21.4-41.5,21.4
					c-0.7,0.4-1.8,0.9-2.4,0.9c-0.6,0-1.1-0.4-1.1-1.5l1-12.9c0-2.2,0-2.6,2.4-3.9C571,558.7,585.4,552.1,586,551.8z"/>
			</g>
		</g>
	</g>
	<rect x="299.5" y="684.6" style="fill:none;" width="418" height="26"/>
	<text transform="matrix(1 0 0 1 299.4887 703.2861)" class="st3" style="font-family:'Brother-1816-Bold'; font-size:26px;">FROM THE HELDEBERGS</text>
</g>
<g id="Logo_black">
	<path class="st0" d="M945.4,2184.9l-1098.9-4.6c-1.8,0.1-5.5-2.4-4-11.7c0,0,101.8-747.3,102-748.3c2.6-14.1,9.2-16.3,17.2-17.1
		l1096.5-0.3c10.8,0,15.7,16.1,13.4,35.1l-100.6,718.1C968,2176.8,961.4,2184.9,945.4,2184.9z"/>
	<g>
		<g>
			<path class="st3" d="M456.6,1713.8c0.6-0.3,0.6-0.8,0-1.1s-15-7.5-15-7.5c-2.4-1.3-2.4-1.7-2.4-3.9l-1-12.9
				c0-1.1,0.6-1.5,1.1-1.5c0.6,0,1.7,0.6,2.4,0.9c0,0,37.5,18.3,41.5,22.1c2.1,2.1,2.2,4.6,0,6.6c-3.8,3.5-41.5,21.4-41.5,21.4
				c-0.7,0.4-1.8,0.9-2.4,0.9c-0.6,0-1.1-0.4-1.1-1.5l1-12.9c0-2.2,0-2.6,2.4-3.9C441.7,1720.7,456,1714.1,456.6,1713.8z"/>
		</g>
		<g>
			<g>
				<path class="st3" d="M376.7,1759.9l28.1,61.8c0.8,1.4,1.4,3.7,1.4,4.3c0,1.1-0.8,1.9-2.4,1.9h-20.4c-1.6,0-3-0.8-3.5-1.9
					l-29.1-63.3c-0.2-0.3-0.5-0.5-0.9-0.5h-41.3c-0.5,0-0.9,0.3-1,0.8l-12.4,61.7c-0.3,1.6-2.2,3.3-3.8,3.3h-17.4
					c-1.6,0-2.7-1.4-2.7-2.7c0-0.5,0.5-3.3,2.7-11.7l33.2-160.4c0.3-1.2,1.2-2.6,3.2-2.7h64.2c35.6,0,53.6,20.1,53.6,47.6
					C428.1,1727.9,407.7,1753.7,376.7,1759.9z M326.7,1671.8l-15.1,69.8c-0.1,0.6,0.4,1.2,1,1.2h39.9c25.6,0,51.6-17.2,51.6-44.9
					c0.3-16.6-9.8-26.9-33.4-26.9h-43C327.2,1671,326.8,1671.4,326.7,1671.8z"/>
				<path class="st3" d="M455.1,1823.8c-0.2,1.6-3.5,4.1-5.1,4.1l-14.7,0c-1.6,0-3.8-2.4-3.8-3.7c0-0.8,0.4-3,0.9-5.6l12.2-65.3
					c0.5-1.7,3.4-3.9,5-3.9l14.8,0c1.6,0,3.7,1.8,3.5,3.2L455.1,1823.8z"/>
				<path class="st3" d="M536,1726.1l-16.6,97.2c-0.3,1.6-3.8,4.8-5.4,4.8l-14.8,0.2c-1.6,0-3.8-3.1-3.8-4.5c0-0.5,0.3-1.9,0.5-3.3
					l16-94.5h-14.7c-1.6,0-3.3-2.2-3-3.8l2.4-13.1c0.3-1.6,3-3.8,4.6-3.8h14.7l4.4-20c5.7-30.2,13.8-36.8,41.8-33.7
					c9.5,1,17.7,2.7,21.8,4.9c2.4,1.4,4.3,2.7,1.6,7.9l-4.6,9.2c-1.1,2.2-2.8,1.9-5.2,1.4c-3.5-1.4-8.4-2.3-12.8-2.7
					c-8.8-0.8-15.4-3.6-18.7,13l-4.4,20h46.8l4.9-25.3c0.3-1.6,4.1-4.6,5.7-4.6h14.7c1.6,0,3.8,3,3.5,4.6l-4.9,25.3h28.6
					c1.6,0,3,1.9,3,3.5c0,0.3-0.3,1.9-0.5,3.3l-1.9,10.1c-0.3,1.6-3,3.8-4.6,3.8h-28.6l-10.1,62.7c-0.5,3-1.1,6.5-1.1,8.7
					c0,10.1,6.5,10.5,13.3,10.5c5.4,0,11.2-0.9,15.8-3.4c3-1.6,4.4-0.3,5.2,1.9c0,0,3.3,15,0.5,16.3c-6,3.3-18.8,4.8-29.1,4.8
					c-18,0-29.6-8.2-29.6-25.8c0-3.5,0.3-9,1.1-13.1l10.1-62.7H536z"/>
			</g>
			<g>
				<path class="st3" d="M668.6,1713.8c0.6-0.3,0.6-0.8,0-1.1c-0.6-0.3-15-7.5-15-7.5c-2.4-1.3-2.4-1.7-2.4-3.9l-1-12.9
					c0-1.1,0.6-1.5,1.1-1.5c0.6,0,1.7,0.6,2.4,0.9c0,0,37.5,18.3,41.5,22.1c2.1,2.1,2.2,4.6,0,6.6c-3.8,3.5-41.5,21.4-41.5,21.4
					c-0.7,0.4-1.8,0.9-2.4,0.9c-0.6,0-1.1-0.4-1.1-1.5l1-12.9c0-2.2,0-2.6,2.4-3.9C653.7,1720.7,668,1714.1,668.6,1713.8z"/>
			</g>
		</g>
	</g>
</g>
<g id="Little_sticker">
	<path class="st0" d="M1368.5,53.1l-419.1-1.2c-0.7,0-2.1-0.6-1.5-3c0,0,38.8-191.6,38.9-191.9c1-3.6,3.5-4.2,6.5-4.4l418.2-0.1
		c4.1,0,6,4.1,5.1,9l-38.4,184.1C1377.1,51,1374.6,53.1,1368.5,53.1z"/>
	<g>
		<g>
			<path class="st3" d="M1148.6-72.2c0.6-0.3,0.6-0.8,0-1.1c-0.6-0.3-15-7.5-15-7.5c-2.4-1.3-2.4-1.7-2.4-3.9l-1-12.9
				c0-1.1,0.6-1.5,1.1-1.5c0.6,0,1.7,0.6,2.4,0.9c0,0,37.5,18.3,41.5,22.1c2.1,2.1,2.2,4.6,0,6.6c-3.8,3.5-41.5,21.4-41.5,21.4
				c-0.7,0.4-1.8,0.9-2.4,0.9c-0.6,0-1.1-0.4-1.1-1.5l1-12.9c0-2.2,0-2.6,2.4-3.9C1133.7-65.3,1148-71.9,1148.6-72.2z"/>
		</g>
		<g>
			<g>
				<path class="st3" d="M1068.7-26.1l28.1,61.8c0.8,1.4,1.4,3.7,1.4,4.3c0,1.1-0.8,1.9-2.4,1.9h-20.4c-1.6,0-3-0.8-3.5-1.9
					l-29.1-63.3c-0.2-0.3-0.5-0.5-0.9-0.5h-41.3c-0.5,0-0.9,0.3-1,0.8l-12.4,61.7c-0.3,1.6-2.2,3.3-3.8,3.3h-17.4
					c-1.6,0-2.7-1.4-2.7-2.7c0-0.5,0.5-3.3,2.7-11.7L999.1-133c0.3-1.2,1.2-2.6,3.2-2.7h64.2c35.6,0,53.6,20.1,53.6,47.6
					C1120.1-58.1,1099.7-32.3,1068.7-26.1z M1018.7-114.2l-15.1,69.8c-0.1,0.6,0.4,1.2,1,1.2h39.9c25.6,0,51.6-17.2,51.6-44.9
					c0.3-16.6-9.8-26.9-33.4-26.9h-43C1019.2-115,1018.8-114.6,1018.7-114.2z"/>
				<path class="st3" d="M1147.1,37.8c-0.2,1.6-3.5,4.1-5.1,4.1l-14.7,0c-1.6,0-3.8-2.4-3.8-3.7c0-0.8,0.4-3,0.9-5.6l12.2-65.3
					c0.5-1.7,3.4-3.9,5-3.9l14.8,0c1.6,0,3.7,1.8,3.5,3.2L1147.1,37.8z"/>
				<path class="st3" d="M1228-59.9l-16.6,97.2c-0.3,1.6-3.8,4.8-5.4,4.8l-14.8,0.2c-1.6,0-3.8-3.1-3.8-4.5c0-0.5,0.3-1.9,0.5-3.3
					l16-94.5h-14.7c-1.6,0-3.3-2.2-3-3.8l2.4-13.1c0.3-1.6,3-3.8,4.6-3.8h14.7l4.4-20c5.7-30.2,13.8-36.8,41.8-33.7
					c9.5,1,17.7,2.7,21.8,4.9c2.4,1.4,4.3,2.7,1.6,7.9l-4.6,9.2c-1.1,2.2-2.8,1.9-5.2,1.4c-3.5-1.4-8.4-2.3-12.8-2.7
					c-8.8-0.8-15.4-3.6-18.7,13l-4.4,20h46.8l4.9-25.3c0.3-1.6,4.1-4.6,5.7-4.6h14.7c1.6,0,3.8,3,3.5,4.6l-4.9,25.3h28.6
					c1.6,0,3,1.9,3,3.5c0,0.3-0.3,1.9-0.5,3.3l-1.9,10.1c-0.3,1.6-3,3.8-4.6,3.8h-28.6l-10.1,62.7c-0.5,3-1.1,6.5-1.1,8.7
					c0,10.1,6.5,10.5,13.3,10.5c5.4,0,11.2-0.9,15.8-3.4c3-1.6,4.4-0.3,5.2,1.9c0,0,3.3,15,0.5,16.3c-6,3.3-18.8,4.8-29.1,4.8
					c-18,0-29.6-8.2-29.6-25.8c0-3.5,0.3-9,1.1-13.1l10.1-62.7H1228z"/>
			</g>
			<g>
				<path class="st3" d="M1360.6-72.2c0.6-0.3,0.6-0.8,0-1.1c-0.6-0.3-15-7.5-15-7.5c-2.4-1.3-2.4-1.7-2.4-3.9l-1-12.9
					c0-1.1,0.6-1.5,1.1-1.5c0.6,0,1.7,0.6,2.4,0.9c0,0,37.5,18.3,41.5,22.1c2.1,2.1,2.2,4.6,0,6.6c-3.8,3.5-41.5,21.4-41.5,21.4
					c-0.7,0.4-1.8,0.9-2.4,0.9c-0.6,0-1.1-0.4-1.1-1.5l1-12.9c0-2.2,0-2.6,2.4-3.9C1345.7-65.3,1360-71.9,1360.6-72.2z"/>
			</g>
		</g>
	</g>
</g>
<g id="black_on_white">
	<g>
		<path class="st4" d="M189.2,69.5c0.6-0.3,0.6-0.8,0-1.1c-0.6-0.3-15-7.5-15-7.5c-2.4-1.3-2.4-1.7-2.4-3.9l-1-12.9
			c0-1.1,0.6-1.5,1.1-1.5c0.6,0,1.7,0.6,2.4,0.9c0,0,37.5,18.3,41.5,22.1c2.1,2.1,2.2,4.6,0,6.6c-3.8,3.5-41.5,21.4-41.5,21.4
			c-0.7,0.4-1.8,0.9-2.4,0.9c-0.6,0-1.1-0.4-1.1-1.5l1-12.9c0-2.2,0-2.6,2.4-3.9C174.3,76.4,188.6,69.8,189.2,69.5z"/>
	</g>
	<g>
		<path class="st0" d="M107.3,115.6l28.1,61.8c0.8,1.4,1.4,3.7,1.4,4.3c0,1.1-0.8,1.9-2.4,1.9h-20.4c-1.6,0-3-0.8-3.5-1.9
			l-29.1-63.3c-0.2-0.3-0.5-0.5-0.9-0.5H39c-0.5,0-0.9,0.3-1,0.8l-12.4,61.7c-0.3,1.6-2.2,3.3-3.8,3.3H4.5c-1.6,0-2.7-1.4-2.7-2.7
			c0-0.5,0.5-3.3,2.7-11.7L37.7,8.7C38,7.5,38.9,6.1,40.9,6h64.2c35.6,0,53.6,20.1,53.6,47.6C158.7,83.6,138.3,109.4,107.3,115.6z
			 M57.3,27.5L42.3,97.4c-0.1,0.6,0.4,1.2,1,1.2h39.9c25.6,0,51.6-17.2,51.6-44.9c0.3-16.6-9.8-26.9-33.4-26.9h-43
			C57.8,26.7,57.4,27.1,57.3,27.5z"/>
		<path class="st0" d="M187.7,179.5c-0.2,1.6-3.5,4.1-5.1,4.1l-14.7,0c-1.6,0-3.8-2.4-3.8-3.7c0-0.8,0.4-3,0.9-5.6l12.2-65.3
			c0.5-1.7,3.4-3.9,5-3.9l14.8,0c1.6,0,3.7,1.8,3.5,3.2L187.7,179.5z"/>
		<path class="st0" d="M268.6,81.7L252,179c-0.3,1.6-3.8,4.8-5.4,4.8l-14.8,0.2c-1.6,0-3.8-3.1-3.8-4.5c0-0.5,0.3-1.9,0.5-3.3
			l16-94.5H230c-1.6,0-3.3-2.2-3-3.8l2.4-13.1c0.3-1.6,3-3.8,4.6-3.8h14.7l4.4-20c5.7-30.2,13.8-36.8,41.8-33.7
			c9.5,1,17.7,2.7,21.8,4.9c2.4,1.4,4.3,2.7,1.6,7.9l-4.6,9.2c-1.1,2.2-2.8,1.9-5.2,1.4c-3.5-1.4-8.4-2.3-12.8-2.7
			c-8.8-0.8-15.4-3.6-18.7,13l-4.4,20h46.8l4.9-25.3c0.3-1.6,4.1-4.6,5.7-4.6h14.7c1.6,0,3.8,3,3.5,4.6l-4.9,25.3H372
			c1.6,0,3,1.9,3,3.5c0,0.3-0.3,1.9-0.5,3.3l-1.9,10.1c-0.3,1.6-3,3.8-4.6,3.8h-28.6l-10.1,62.7c-0.5,3-1.1,6.5-1.1,8.7
			c0,10.1,6.5,10.5,13.3,10.5c5.4,0,11.2-0.9,15.8-3.4c3-1.6,4.4-0.3,5.2,1.9c0,0,3.3,15,0.5,16.3c-6,3.3-18.8,4.8-29.1,4.8
			c-18,0-29.6-8.2-29.6-25.8c0-3.5,0.3-9,1.1-13.1l10.1-62.7H268.6z"/>
	</g>
	<path class="st4" d="M401.2,70.5c0.6-0.3,0.7-0.9,0-1.2c-0.7-0.3-16-8.1-16-8.1c-2.6-1.4-2.6-1.8-2.6-4.1l-1.1-13.8
		c0-1.2,0.6-1.6,1.2-1.6c0.6,0,1.8,0.6,2.6,1c0,0,40.2,19.6,44.5,23.7c2.2,2.3,2.4,4.9,0,7.1c-4.1,3.8-44.5,22.9-44.5,22.9
		c-0.8,0.4-2,1-2.6,1c-0.6,0-1.2-0.4-1.2-1.6l1.1-13.8c0-2.4,0-2.8,2.6-4.1C385.1,77.8,400.5,70.8,401.2,70.5z"/>
</g>
<g id="Experiment_1">
	<rect x="-1286" y="-768.1" width="1004.4" height="576"/>
	<g>
		<path class="st5" d="M-143.2-488.9c0.6-0.3-19-8.6-19-8.6c-1.2-0.6-2.2-2.9-2.4-3.9l-2-12.9c0-1.1,0.6-1.5,1.1-1.5
			c0.6,0,1.7,0.6,2.4,0.9l41.5,22.1c1.5,0.9,1.1,6,0,6.6l-41.5,21.4c-0.7,0.4-1.8,0.9-2.4,0.9c-0.6,0-1.1-0.4-1.1-1.5l2-12.9
			c0.4-1.4,1.2-3,2.4-3.9C-162.1-482.1-143.8-488.6-143.2-488.9z"/>
	</g>
	<g>
		<path class="st5" d="M-143.2-488.9c0.6-0.3-19-8.6-19-8.6c-1.2-0.6-2.2-2.9-2.4-3.9l-2-12.9c0-1.1,0.6-1.5,1.1-1.5
			c0.6,0,1.7,0.6,2.4,0.9l41.5,22.1c1.5,0.9,1.1,6,0,6.6l-41.5,21.4c-0.7,0.4-1.8,0.9-2.4,0.9c-0.6,0-1.1-0.4-1.1-1.5l2-12.9
			c0.4-1.4,1.2-3,2.4-3.9C-162.1-482.1-143.8-488.6-143.2-488.9z"/>
	</g>
	<g>
		<path class="st5" d="M72.8-488.9c0.6-0.3-19-8.6-19-8.6c-1.2-0.6-2.2-2.9-2.4-3.9l-2-12.9c0-1.1,0.6-1.5,1.1-1.5
			c0.6,0,1.7,0.6,2.4,0.9l41.5,22.1c1.5,0.9,1.1,6,0,6.6L53-464.8c-0.7,0.4-1.8,0.9-2.4,0.9c-0.6,0-1.1-0.4-1.1-1.5l2-12.9
			c0.4-1.4,1.2-3,2.4-3.9C53.9-482.1,72.2-488.6,72.8-488.9z"/>
	</g>
	<path class="st5" d="M36.3-500.5c2.4,0,5.2,2.1,4.6,3.6l-2.8,14c-0.6,1.5-2.6,3.3-5.8,3.5l-124.2,0.3c-4.9,0-8.9,0-10.3-0.1
		c-2.3-0.2-6.1-2.6-5.5-4l2.8-13.5c0.6-1.5,3.1-3.9,6-3.8H36.3z"/>
	<g>
		<path class="st5" d="M72.8-488.9c0.6-0.3-19-8.6-19-8.6c-1.2-0.6-2.2-2.9-2.4-3.9l-2-12.9c0-1.1,0.6-1.5,1.1-1.5
			c0.6,0,1.7,0.6,2.4,0.9l41.5,22.1c1.5,0.9,1.1,6,0,6.6L53-464.8c-0.7,0.4-1.8,0.9-2.4,0.9c-0.6,0-1.1-0.4-1.1-1.5l2-12.9
			c0.4-1.4,1.2-3,2.4-3.9C53.9-482.1,72.2-488.6,72.8-488.9z"/>
	</g>
	<g>
		<path class="st5" d="M72.8-488.9c0.6-0.3-19-8.6-19-8.6c-1.2-0.6-2.2-2.9-2.4-3.9l-2-12.9c0-1.1,0.6-1.5,1.1-1.5
			c0.6,0,1.7,0.6,2.4,0.9l41.5,22.1c1.5,0.9,1.1,6,0,6.6L53-464.8c-0.7,0.4-1.8,0.9-2.4,0.9c-0.6,0-1.1-0.4-1.1-1.5l2-12.9
			c0.4-1.4,1.2-3,2.4-3.9C53.9-482.1,72.2-488.6,72.8-488.9z"/>
	</g>
	<g>
		<path class="st5" d="M72.8-488.9c0.6-0.3-19-8.6-19-8.6c-1.2-0.6-2.2-2.9-2.4-3.9l-2-12.9c0-1.1,0.6-1.5,1.1-1.5
			c0.6,0,1.7,0.6,2.4,0.9l41.5,22.1c1.5,0.9,1.1,6,0,6.6L53-464.8c-0.7,0.4-1.8,0.9-2.4,0.9c-0.6,0-1.1-0.4-1.1-1.5l2-12.9
			c0.4-1.4,1.2-3,2.4-3.9C53.9-482.1,72.2-488.6,72.8-488.9z"/>
	</g>
	<g>
		<path class="st5" d="M288.9-488.9c0.6-0.3-19-8.6-19-8.6c-1.2-0.6-2.2-2.9-2.4-3.9l-2-12.9c0-1.1,0.6-1.5,1.1-1.5
			c0.6,0,1.7,0.6,2.4,0.9l41.5,22.1c1.5,0.9,1.1,6,0,6.6L269-464.8c-0.7,0.4-1.8,0.9-2.4,0.9c-0.6,0-1.1-0.4-1.1-1.5l2-12.9
			c0.4-1.4,1.2-3,2.4-3.9C269.9-482.1,288.3-488.6,288.9-488.9z"/>
	</g>
	<path class="st5" d="M252.3-500.5c2.4,0,5.2,2.1,4.6,3.6l-2.8,14c-0.6,1.5-2.6,3.3-5.8,3.5l-124.2,0.3c-4.9,0-8.9,0-10.3-0.1
		c-2.3-0.2-6.1-2.6-5.5-4l2.8-13.5c0.6-1.5,3.1-3.9,6-3.8H252.3z"/>
	<g>
		<path class="st5" d="M288.9-488.9c0.6-0.3-19-8.6-19-8.6c-1.2-0.6-2.2-2.9-2.4-3.9l-2-12.9c0-1.1,0.6-1.5,1.1-1.5
			c0.6,0,1.7,0.6,2.4,0.9l41.5,22.1c1.5,0.9,1.1,6,0,6.6L269-464.8c-0.7,0.4-1.8,0.9-2.4,0.9c-0.6,0-1.1-0.4-1.1-1.5l2-12.9
			c0.4-1.4,1.2-3,2.4-3.9C269.9-482.1,288.3-488.6,288.9-488.9z"/>
	</g>
	<g>
		<path class="st5" d="M289.3-488.9c0.6-0.3-19-8.6-19-8.6c-1.2-0.6-2.2-2.9-2.4-3.9l-2-12.9c0-1.1,0.6-1.5,1.1-1.5
			c0.6,0,1.7,0.6,2.4,0.9l41.5,22.1c1.5,0.9,1.1,6,0,6.6l-41.5,21.4c-0.7,0.4-1.8,0.9-2.4,0.9c-0.6,0-1.1-0.4-1.1-1.5l2-12.9
			c0.4-1.4,1.2-3,2.4-3.9C270.3-482.1,288.7-488.6,289.3-488.9z"/>
	</g>
	<g>
		<path class="st5" d="M289.3-488.9c0.6-0.3-19-8.6-19-8.6c-1.2-0.6-2.2-2.9-2.4-3.9l-2-12.9c0-1.1,0.6-1.5,1.1-1.5
			c0.6,0,1.7,0.6,2.4,0.9l41.5,22.1c1.5,0.9,1.1,6,0,6.6l-41.5,21.4c-0.7,0.4-1.8,0.9-2.4,0.9c-0.6,0-1.1-0.4-1.1-1.5l2-12.9
			c0.4-1.4,1.2-3,2.4-3.9C270.3-482.1,288.7-488.6,289.3-488.9z"/>
	</g>
	<g>
		<path class="st5" d="M288.9-488.9c0.6-0.3-19-8.6-19-8.6c-1.2-0.6-2.2-2.9-2.4-3.9l-2-12.9c0-1.1,0.6-1.5,1.1-1.5
			c0.6,0,1.7,0.6,2.4,0.9l41.5,22.1c1.5,0.9,1.1,6,0,6.6L269-464.8c-0.7,0.4-1.8,0.9-2.4,0.9c-0.6,0-1.1-0.4-1.1-1.5l2-12.9
			c0.4-1.4,1.2-3,2.4-3.9C269.9-482.1,288.3-488.6,288.9-488.9z"/>
	</g>
	<g>
		<g>
			<path class="st6" d="M-544.2-722c0.6-0.3-19-8.6-19-8.6c-1.2-0.6-2.2-2.9-2.4-3.9l-2-12.9c0-1.1,0.6-1.5,1.1-1.5
				c0.6,0,1.7,0.6,2.4,0.9l41.5,22.1c1.5,0.9,1.1,6,0,6.6l-41.5,21.4c-0.7,0.4-1.8,0.9-2.4,0.9c-0.6,0-1.1-0.4-1.1-1.5l2-12.9
				c0.4-1.4,1.2-3,2.4-3.9C-563.2-715.2-544.8-721.8-544.2-722z"/>
		</g>
		<g class="st7">
			<g class="st8">
				<path class="st6" d="M-1059.7-414.1c0.6-0.3-19-8.6-19-8.6c-1.2-0.6-2.2-2.9-2.4-3.9l-2-12.9c0-1.1,0.6-1.5,1.1-1.5
					c0.6,0,1.7,0.6,2.4,0.9l41.5,22.1c1.5,0.9,1.1,6,0,6.6l-41.5,21.4c-0.7,0.4-1.8,0.9-2.4,0.9c-0.6,0-1.1-0.4-1.1-1.5l2-12.9
					c0.4-1.4,1.2-3,2.4-3.9C-1078.6-407.2-1060.3-413.8-1059.7-414.1z"/>
			</g>
			<path class="st9" d="M-1096.2-425.7c2.4,0,5.2,2.1,4.6,3.6l-2.8,14c-0.6,1.5-2.6,3.3-5.8,3.5l-124.2,0.3c-4.9,0-8.9,0-10.3-0.1
				c-2.3-0.2-6.1-2.6-5.5-4l2.8-13.5c0.6-1.5,3.1-3.9,6-3.8H-1096.2z"/>
			<g class="st8">
				<path class="st6" d="M-1245.7-567.7c0.6-0.3-19-8.6-19-8.6c-1.2-0.6-2.2-2.9-2.4-3.9l-2-12.9c0-1.1,0.6-1.5,1.1-1.5
					c0.6,0,1.7,0.6,2.4,0.9l41.5,22.1c1.5,0.9,1.1,6,0,6.6l-41.5,21.4c-0.7,0.4-1.8,0.9-2.4,0.9c-0.6,0-1.1-0.4-1.1-1.5l2-12.9
					c0.4-1.4,1.2-3,2.4-3.9C-1264.7-560.9-1246.3-567.5-1245.7-567.7z"/>
			</g>
			<g class="st8">
				<path class="st6" d="M-1029.7-567.7c0.6-0.3-19-8.6-19-8.6c-1.2-0.6-2.2-2.9-2.4-3.9l-2-12.9c0-1.1,0.6-1.5,1.1-1.5
					c0.6,0,1.7,0.6,2.4,0.9l41.5,22.1c1.5,0.9,1.1,6,0,6.6l-41.5,21.4c-0.7,0.4-1.8,0.9-2.4,0.9c-0.6,0-1.1-0.4-1.1-1.5l2-12.9
					c0.4-1.4,1.2-3,2.4-3.9C-1048.7-560.9-1030.3-567.5-1029.7-567.7z"/>
			</g>
			<path class="st9" d="M-1066.2-579.4c2.4,0,5.2,2.1,4.6,3.6l-2.8,14c-0.6,1.5-2.6,3.3-5.8,3.5l-124.2,0.3c-4.9,0-8.9,0-10.3-0.1
				c-2.3-0.2-6.1-2.6-5.5-4l2.8-13.5c0.6-1.5,3.1-3.9,6-3.8L-1066.2-579.4z"/>
			<g class="st8">
				<path class="st6" d="M-1114.7-644.6c0.6-0.3-19-8.6-19-8.6c-1.2-0.6-2.2-2.9-2.4-3.9l-2-12.9c0-1.1,0.6-1.5,1.1-1.5
					c0.6,0,1.7,0.6,2.4,0.9l41.5,22.1c1.5,0.9,1.1,6,0,6.6l-41.5,21.4c-0.7,0.4-1.8,0.9-2.4,0.9c-0.6,0-1.1-0.4-1.1-1.5l2-12.9
					c0.4-1.4,1.2-3,2.4-3.9C-1133.7-637.7-1115.4-644.3-1114.7-644.6z"/>
			</g>
			<g class="st8">
				<path class="st6" d="M-898.7-644.6c0.6-0.3-19-8.6-19-8.6c-1.2-0.6-2.2-2.9-2.4-3.9l-2-12.9c0-1.1,0.6-1.5,1.1-1.5
					c0.6,0,1.7,0.6,2.4,0.9l41.5,22.1c1.5,0.9,1.1,6,0,6.6l-41.5,21.4c-0.7,0.4-1.8,0.9-2.4,0.9c-0.6,0-1.1-0.4-1.1-1.5l2-12.9
					c0.4-1.4,1.2-3,2.4-3.9C-917.7-637.7-899.3-644.3-898.7-644.6z"/>
			</g>
			<path class="st9" d="M-935.2-656.2c2.4,0,5.2,2.1,4.6,3.6l-2.8,14c-0.6,1.5-2.6,3.3-5.8,3.5l-124.2,0.3c-4.9,0-8.9,0-10.3-0.1
				c-2.3-0.2-6.1-2.6-5.5-4l2.8-13.5c0.6-1.5,3.1-3.9,6-3.8H-935.2z"/>
			<g class="st8">
				<path class="st6" d="M-1160.7-324.3c0.6-0.3-19-8.6-19-8.6c-1.2-0.6-2.2-2.9-2.4-3.9l-2-12.9c0-1.1,0.6-1.5,1.1-1.5
					c0.6,0,1.7,0.6,2.4,0.9l41.5,22.1c1.5,0.9,1.1,6,0,6.6l-41.5,21.4c-0.7,0.4-1.8,0.9-2.4,0.9c-0.6,0-1.1-0.4-1.1-1.5l2-12.9
					c0.4-1.4,1.2-3,2.4-3.9C-1179.7-317.4-1161.3-324-1160.7-324.3z"/>
			</g>
			<g class="st8">
				<path class="st6" d="M-944.7-324.3c0.6-0.3-19-8.6-19-8.6c-1.2-0.6-2.2-2.9-2.4-3.9l-2-12.9c0-1.1,0.6-1.5,1.1-1.5
					c0.6,0,1.7,0.6,2.4,0.9l41.5,22.1c1.5,0.9,1.1,6,0,6.6l-41.5,21.4c-0.7,0.4-1.8,0.9-2.4,0.9c-0.6,0-1.1-0.4-1.1-1.5l2-12.9
					c0.4-1.4,1.2-3,2.4-3.9C-963.7-317.4-945.3-324-944.7-324.3z"/>
			</g>
			<path class="st9" d="M-981.2-335.9c2.4,0,5.2,2.1,4.6,3.6l-2.8,14c-0.6,1.5-2.6,3.3-5.8,3.5l-124.2,0.3c-4.9,0-8.9,0-10.3-0.1
				c-2.3-0.2-6.1-2.6-5.5-4l2.8-13.5c0.6-1.5,3.1-3.9,6-3.8H-981.2z"/>
			<path class="st9" d="M-858.7-256.6c2.4,0,5.2,1.6,4.6,2.7l-2.8,10.5c-0.6,1.1-2.6,2.5-5.8,2.6l-124.2,0.2c-4.9,0-8.9,0-10.3-0.1
				c-2.3-0.2-6.1-1.9-5.5-3l2.8-10.1c0.6-1.1,3.1-2.9,6-2.9H-858.7z"/>
			<g class="st8">
				<path class="st6" d="M-822.2-247.4c0.6-0.3-19-8.6-19-8.6c-1.2-0.6-2.2-2.9-2.4-3.9l-2-12.9c0-1.1,0.6-1.5,1.1-1.5
					c0.6,0,1.7,0.6,2.4,0.9l41.5,22.1c1.5,0.9,1.1,6,0,6.6l-41.5,21.4c-0.7,0.4-1.8,0.9-2.4,0.9c-0.6,0-1.1-0.4-1.1-1.5l2-12.9
					c0.4-1.4,1.2-3,2.4-3.9C-841.1-240.6-822.8-247.2-822.2-247.4z"/>
			</g>
			<path class="st9" d="M-1074.7-256.6c2.4,0,5.2,1.6,4.6,2.7l-2.8,10.5c-0.6,1.1-2.6,2.5-5.8,2.6l-124.2,0.2c-4.9,0-8.9,0-10.3-0.1
				c-2.3-0.2-6.1-1.9-5.5-3l2.8-10.1c0.6-1.1,3.1-2.9,6-2.9H-1074.7z"/>
			<g class="st8">
				<path class="st6" d="M-1038.2-247.4c0.6-0.3-19-8.6-19-8.6c-1.2-0.6-2.2-2.9-2.4-3.9l-2-12.9c0-1.1,0.6-1.5,1.1-1.5
					c0.6,0,1.7,0.6,2.4,0.9l41.5,22.1c1.5,0.9,1.1,6,0,6.6l-41.5,21.4c-0.7,0.4-1.8,0.9-2.4,0.9c-0.6,0-1.1-0.4-1.1-1.5l2-12.9
					c0.4-1.4,1.2-3,2.4-3.9C-1057.2-240.6-1038.8-247.2-1038.2-247.4z"/>
			</g>
			<path class="st9" d="M-642.7-256.6c2.4,0,5.2,1.6,4.6,2.7l-2.8,10.5c-0.6,1.1-2.6,2.5-5.8,2.6l-124.2,0.2c-4.9,0-8.9,0-10.3-0.1
				c-2.3-0.2-6.1-1.9-5.5-3l2.8-10.1c0.6-1.1,3.1-2.9,6-2.9H-642.7z"/>
			<g class="st8">
				<path class="st6" d="M-606.2-247.4c0.6-0.3-19-8.6-19-8.6c-1.2-0.6-2.2-2.9-2.4-3.9l-2-12.9c0-1.1,0.6-1.5,1.1-1.5
					c0.6,0,1.7,0.6,2.4,0.9l41.5,22.1c1.5,0.9,1.1,6,0,6.6l-41.5,21.4c-0.7,0.4-1.8,0.9-2.4,0.9c-0.6,0-1.1-0.4-1.1-1.5l2-12.9
					c0.4-1.4,1.2-3,2.4-3.9C-625.1-240.6-606.8-247.2-606.2-247.4z"/>
			</g>
			<path class="st9" d="M-426.7-256.6c2.4,0,5.2,1.6,4.6,2.7l-2.8,10.5c-0.6,1.1-2.6,2.5-5.8,2.6l-124.2,0.2c-4.9,0-8.9,0-10.3-0.1
				c-2.3-0.2-6.1-1.9-5.5-3l2.8-10.1c0.6-1.1,3.1-2.9,6-2.9H-426.7z"/>
			<g class="st8">
				<path class="st6" d="M-390.1-247.4c0.6-0.3-19-8.6-19-8.6c-1.2-0.6-2.2-2.9-2.4-3.9l-2-12.9c0-1.1,0.6-1.5,1.1-1.5
					c0.6,0,1.7,0.6,2.4,0.9l41.5,22.1c1.5,0.9,1.1,6,0,6.6l-41.5,21.4c-0.7,0.4-1.8,0.9-2.4,0.9c-0.6,0-1.1-0.4-1.1-1.5l2-12.9
					c0.4-1.4,1.2-3,2.4-3.9C-409.1-240.6-390.7-247.2-390.1-247.4z"/>
			</g>
			<path class="st9" d="M-395.7-500.5c2.4,0,5.2,2.1,4.6,3.6l-2.8,14c-0.6,1.5-2.6,3.3-5.8,3.5l-124.2,0.3c-4.9,0-8.9,0-10.3-0.1
				c-2.3-0.2-6.1-2.6-5.5-4l2.8-13.5c0.6-1.5,3.1-3.9,6-3.8H-395.7z"/>
			<g class="st8">
				<path class="st6" d="M-359.2-488.9c0.6-0.3-19-8.6-19-8.6c-1.2-0.6-2.2-2.9-2.4-3.9l-2-12.9c0-1.1,0.6-1.5,1.1-1.5
					c0.6,0,1.7,0.6,2.4,0.9l41.5,22.1c1.5,0.9,1.1,6,0,6.6l-41.5,21.4c-0.7,0.4-1.8,0.9-2.4,0.9c-0.6,0-1.1-0.4-1.1-1.5l2-12.9
					c0.4-1.4,1.2-3,2.4-3.9C-378.2-482.1-359.8-488.6-359.2-488.9z"/>
			</g>
			<g class="st8">
				<path class="st6" d="M-1160.7-490.9c0.6-0.3-19-8.6-19-8.6c-1.2-0.6-2.2-2.9-2.4-3.9l-2-12.9c0-1.1,0.6-1.5,1.1-1.5
					c0.6,0,1.7,0.6,2.4,0.9l41.5,22.1c1.5,0.9,1.1,6,0,6.6l-41.5,21.4c-0.7,0.4-1.8,0.9-2.4,0.9c-0.6,0-1.1-0.4-1.1-1.5l2-12.9
					c0.4-1.4,1.2-3,2.4-3.9C-1179.7-484.1-1161.3-490.6-1160.7-490.9z"/>
			</g>
			<g class="st8">
				<path class="st6" d="M-679.4-644.6c0.6-0.3-19-8.6-19-8.6c-1.2-0.6-2.2-2.9-2.4-3.9l-2-12.9c0-1.1,0.6-1.5,1.1-1.5
					c0.6,0,1.7,0.6,2.4,0.9l41.5,22.1c1.5,0.9,1.1,6,0,6.6l-41.5,21.4c-0.7,0.4-1.8,0.9-2.4,0.9c-0.6,0-1.1-0.4-1.1-1.5l2-12.9
					c0.4-1.4,1.2-3,2.4-3.9C-698.4-637.7-680-644.3-679.4-644.6z"/>
			</g>
			<g class="st8">
				<path class="st6" d="M-463.4-644.6c0.6-0.3-19-8.6-19-8.6c-1.2-0.6-2.2-2.9-2.4-3.9l-2-12.9c0-1.1,0.6-1.5,1.1-1.5
					c0.6,0,1.7,0.6,2.4,0.9l41.5,22.1c1.5,0.9,1.1,6,0,6.6l-41.5,21.4c-0.7,0.4-1.8,0.9-2.4,0.9c-0.6,0-1.1-0.4-1.1-1.5l2-12.9
					c0.4-1.4,1.2-3,2.4-3.9C-482.4-637.7-464-644.3-463.4-644.6z"/>
			</g>
			<g class="st8">
				<path class="st6" d="M-328.7-723.3c0.6-0.3-19-8.6-19-8.6c-1.2-0.6-2.2-2.9-2.4-3.9l-2-12.9c0-1.1,0.6-1.5,1.1-1.5
					c0.6,0,1.7,0.6,2.4,0.9l41.5,22.1c1.5,0.9,1.1,6,0,6.6l-41.5,21.4c-0.7,0.4-1.8,0.9-2.4,0.9c-0.6,0-1.1-0.4-1.1-1.5l2-12.9
					c0.4-1.4,1.2-3,2.4-3.9C-347.6-716.4-329.3-723-328.7-723.3z"/>
			</g>
			<path class="st9" d="M-499.9-656.2c2.4,0,5.2,2.1,4.6,3.6l-2.8,14c-0.6,1.5-2.6,3.3-5.8,3.5l-124.2,0.3c-4.9,0-8.9,0-10.3-0.1
				c-2.3-0.2-6.1-2.6-5.5-4l2.8-13.5c0.6-1.5,3.1-3.9,6-3.8H-499.9z"/>
			<path class="st9" d="M-717-657.5c2.4,0,5.2,2.1,4.6,3.6l-2.8,14c-0.6,1.5-2.6,3.3-5.8,3.5l-124.2,0.3c-4.9,0-8.9,0-10.3-0.1
				c-2.3-0.2-6.1-2.6-5.5-4l2.8-13.5c0.6-1.5,3.1-3.9,6-3.8H-717z"/>
			<g class="st8">
				<path class="st6" d="M-1206.7-722c0.6-0.3-19-8.6-19-8.6c-1.2-0.6-2.2-2.9-2.4-3.9l-2-12.9c0-1.1,0.6-1.5,1.1-1.5
					c0.6,0,1.7,0.6,2.4,0.9l41.5,22.1c1.5,0.9,1.1,6,0,6.6l-41.5,21.4c-0.7,0.4-1.8,0.9-2.4,0.9c-0.6,0-1.1-0.4-1.1-1.5l2-12.9
					c0.4-1.4,1.2-3,2.4-3.9C-1225.6-715.2-1207.3-721.8-1206.7-722z"/>
			</g>
			<g class="st8">
				<path class="st6" d="M-766.6-722c0.6-0.3-19-8.6-19-8.6c-1.2-0.6-2.2-2.9-2.4-3.9l-2-12.9c0-1.1,0.6-1.5,1.1-1.5
					c0.6,0,1.7,0.6,2.4,0.9l41.5,22.1c1.5,0.9,1.1,6,0,6.6l-41.5,21.4c-0.7,0.4-1.8,0.9-2.4,0.9c-0.6,0-1.1-0.4-1.1-1.5l2-12.9
					c0.4-1.4,1.2-3,2.4-3.9C-785.5-715.2-767.2-721.8-766.6-722z"/>
			</g>
			<path class="st9" d="M-803.1-727.5c2.4,0,5.2,1.2,4.6,2l-2.8,7.9c-0.6,0.8-2.6,1.9-5.8,2l-124.2,0.2c-4.9,0-8.9,0-10.3-0.1
				c-2.3-0.1-6.1-1.4-5.5-2.3l2.8-7.6c0.6-0.8,3.1-2.2,6-2.2H-803.1z"/>
			<path class="st9" d="M-364.7-727.5c2.4,0,5.2,1.2,4.6,2l-2.8,7.9c-0.6,0.8-2.6,1.9-5.8,2l-124.2,0.2c-4.9,0-8.9,0-10.3-0.1
				c-2.3-0.1-6.1-1.4-5.5-2.3l2.8-7.6c0.6-0.8,3.1-2.2,6-2.2H-364.7z"/>
			<g class="st8">
				<path class="st6" d="M-982.6-722c0.6-0.3-19-8.6-19-8.6c-1.2-0.6-2.2-2.9-2.4-3.9l-2-12.9c0-1.1,0.6-1.5,1.1-1.5
					c0.6,0,1.7,0.6,2.4,0.9l41.5,22.1c1.5,0.9,1.1,6,0,6.6l-41.5,21.4c-0.7,0.4-1.8,0.9-2.4,0.9c-0.6,0-1.1-0.4-1.1-1.5l2-12.9
					c0.4-1.4,1.2-3,2.4-3.9C-1001.5-715.2-983.2-721.8-982.6-722z"/>
			</g>
			<path class="st9" d="M-1020.2-728.2c2.4,0,5.2,1.2,4.6,2l-2.8,7.9c-0.6,0.8-2.6,1.9-5.8,2l-124.2,0.2c-4.9,0-8.9,0-10.3-0.1
				c-2.3-0.1-6.1-1.4-5.5-2.3l2.8-7.6c0.6-0.8,3.1-2.2,6-2.2H-1020.2z"/>
			<path class="st9" d="M-586.1-727.8c2.4,0,5.2,1.2,4.6,2l-2.8,7.9c-0.6,0.8-2.6,1.9-5.8,2l-124.2,0.2c-4.9,0-8.9,0-10.3-0.1
				c-2.3-0.1-6.1-1.4-5.5-2.3l2.8-7.6c0.6-0.8,3.1-2.2,6-2.2H-586.1z"/>
			<g class="st8">
				<path class="st6" d="M-507.9-414.1c0.6-0.3-19-8.6-19-8.6c-1.2-0.6-2.2-2.9-2.4-3.9l-2-12.9c0-1.1,0.6-1.5,1.1-1.5
					c0.6,0,1.7,0.6,2.4,0.9l41.5,22.1c1.5,0.9,1.1,6,0,6.6l-41.5,21.4c-0.7,0.4-1.8,0.9-2.4,0.9c-0.6,0-1.1-0.4-1.1-1.5l2-12.9
					c0.4-1.4,1.2-3,2.4-3.9C-526.8-407.2-508.5-413.8-507.9-414.1z"/>
			</g>
			<path class="st9" d="M-328.4-425.7c2.4,0,5.2,2.1,4.6,3.6l-2.8,14c-0.6,1.5-2.6,3.3-5.8,3.5l-124.2,0.3c-4.9,0-8.9,0-10.3-0.1
				c-2.3-0.2-6.1-2.6-5.5-4l2.8-13.5c0.6-1.5,3.1-3.9,6-3.8H-328.4z"/>
		</g>
	</g>
	<g>
		<g>
			<path class="st3" d="M-801.1-489.8c0.6-0.3,0.6-0.8,0-1.1s-15-7.5-15-7.5c-2.4-1.3-2.4-1.7-2.4-3.9l-1-12.9
				c0-1.1,0.6-1.5,1.1-1.5c0.6,0,1.7,0.6,2.4,0.9c0,0,37.5,18.3,41.5,22.1c2.1,2.1,2.2,4.6,0,6.6c-3.8,3.5-41.5,21.4-41.5,21.4
				c-0.7,0.4-1.8,0.9-2.4,0.9c-0.6,0-1.1-0.4-1.1-1.5l1-12.9c0-2.2,0-2.6,2.4-3.9C-816-482.9-801.7-489.5-801.1-489.8z"/>
		</g>
		<g>
			<path class="st3" d="M-883-443.7l28.1,61.8c0.8,1.4,1.4,3.7,1.4,4.3c0,1.1-0.8,1.9-2.4,1.9h-20.4c-1.6,0-3-0.8-3.5-1.9
				l-29.1-63.3c-0.2-0.3-0.5-0.5-0.9-0.5h-41.3c-0.5,0-0.9,0.3-1,0.8l-12.4,61.7c-0.3,1.6-2.2,3.3-3.8,3.3h-17.4
				c-1.6,0-2.7-1.4-2.7-2.7c0-0.5,0.5-3.3,2.7-11.7l33.2-160.4c0.3-1.2,1.2-2.6,3.2-2.7h64.2c35.6,0,53.6,20.1,53.6,47.6
				C-831.6-475.8-852-450-883-443.7z M-933-531.8L-948-462c-0.1,0.6,0.4,1.2,1,1.2h39.9c25.6,0,51.6-17.2,51.6-44.9
				c0.3-16.6-9.8-26.9-33.4-26.9h-43C-932.5-532.6-932.9-532.3-933-531.8z"/>
			<path class="st3" d="M-802.6-379.8c-0.2,1.6-3.5,4.1-5.1,4.1l-14.7,0c-1.6,0-3.8-2.4-3.8-3.7c0-0.8,0.4-3,0.9-5.6l12.2-65.3
				c0.5-1.7,3.4-3.9,5-3.9l14.8,0c1.6,0,3.7,1.8,3.5,3.2L-802.6-379.8z"/>
			<path class="st3" d="M-721.7-477.6l-16.6,97.2c-0.3,1.6-3.8,4.8-5.4,4.8l-14.8,0.2c-1.6,0-3.8-3.1-3.8-4.5c0-0.5,0.3-1.9,0.5-3.3
				l16-94.5h-14.7c-1.6,0-3.3-2.2-3-3.8l2.4-13.1c0.3-1.6,3-3.8,4.6-3.8h14.7l4.4-20c5.7-30.2,13.8-36.8,41.8-33.7
				c9.5,1,17.7,2.7,21.8,4.9c2.4,1.4,4.3,2.7,1.6,7.9l-4.6,9.2c-1.1,2.2-2.8,1.9-5.2,1.4c-3.5-1.4-8.4-2.3-12.8-2.7
				c-8.8-0.8-15.4-3.6-18.7,13l-4.4,20h46.8l4.9-25.3c0.3-1.6,4.1-4.6,5.7-4.6h14.7c1.6,0,3.8,3,3.5,4.6l-4.9,25.3h28.6
				c1.6,0,3,1.9,3,3.5c0,0.3-0.3,1.9-0.5,3.3l-1.9,10.1c-0.3,1.6-3,3.8-4.6,3.8H-651l-10.1,62.7c-0.5,3-1.1,6.5-1.1,8.7
				c0,10.1,6.5,10.5,13.3,10.5c5.4,0,11.2-0.9,15.8-3.4c3-1.6,4.4-0.3,5.2,1.9c0,0,3.3,15,0.5,16.3c-6,3.3-18.8,4.8-29.1,4.8
				c-18,0-29.6-8.2-29.6-25.8c0-3.5,0.3-9,1.1-13.1l10.1-62.7H-721.7z"/>
		</g>
		<path class="st3" d="M-589.1-488.9c0.7-0.3,0.7-0.9,0-1.2c-0.7-0.3-16-8.1-16-8.1c-2.6-1.4-2.6-1.8-2.6-4.1l-1.1-13.8
			c0-1.2,0.6-1.6,1.2-1.6c0.6,0,1.8,0.6,2.6,1c0,0,40.2,19.6,44.5,23.7c2.2,2.3,2.4,4.9,0,7.1c-4.1,3.8-44.5,22.9-44.5,22.9
			c-0.8,0.4-2,1-2.6,1c-0.6,0-1.2-0.4-1.2-1.6l1.1-13.8c0-2.4,0-2.8,2.6-4.1C-605.2-481.5-589.8-488.6-589.1-488.9z"/>
	</g>
</g>
</svg>
