<?xml version="1.0" encoding="utf-8"?>
<!-- Generator: Adobe Illustrator 21.1.0, SVG Export Plug-In . SVG Version: 6.00 Build 0)  -->
<svg version="1.1" id="Layer_1" xmlns="http://www.w3.org/2000/svg" xmlns:xlink="http://www.w3.org/1999/xlink" x="0px" y="0px"
	 viewBox="0 0 182.4 182" style="enable-background:new 0 0 182.4 182;" xml:space="preserve">
<style type="text/css">
	.st0{display:none;}
	.st1{stroke:#FFFFFF;stroke-miterlimit:10;}
	.st2{fill:#654EA1;}
	.st3{fill:#039B76;}
</style>
<g id="Layer_2" class="st0">
</g>
<g>
	<g>
		<g>
			<path class="st1" d="M47,103.6c-1.4,0-2.8-2.4-2.5-4L47,85c0.3-1.6,2.9-4.1,4.7-4.2l70.4,0c2.6,0,4.9-0.1,5.7,0.1
				c1.3,0.2,3.3,2.8,3,4.4l-2.5,14.5c-0.3,1.6-3.3,4.4-4.9,4.3L47,103.6z"/>
		</g>
		<g>
			<path class="st2" d="M145.9,75.8c0.3-1.3,1.4-2.8,4.7-1c0,0,27.9,11.4,30.7,14.2c1.4,1.5,1.5,3.2-0.1,4.6
				c-2.6,2.4-33.3,13.5-36.4,14.4c-1.6,0.5-4-0.4-3.7-3C141.6,100.9,145.9,75.8,145.9,75.8z"/>
		</g>
	</g>
</g>
<path class="st3" d="M32,91c0,8.9-8.2,16-17,16S0,99.8,0,91s9.2-16,18-16S32,82.1,32,91z"/>
</svg>
