<svg id="Layer_1" data-name="Layer 1" xmlns="http://www.w3.org/2000/svg" width="123" height="36" viewBox="0 0 123 36"><defs><style>.cls-1 { fill: #4b5764; } .cls-2 { fill: #e35826; }</style></defs><path class="cls-1" d="M26.37 23.4H25.3c-.45-4-1.53-4.48-3.86-4.48h-9.59V31c0 2.61 1 3.12 3.07 3.12h8.74c4 0 5.16-1.53 6.58-6.41h1l-.91 8.45H.21v-1.07H1.8c4.54 0 5.33-1.25 5.33-4.65V6.49C7.14 3.31 6.4 2 2.6 2H1.35V.87h27.24L29 8.76h-1c-.74-4.82-2.16-5.85-4.2-5.85h-12v14H22c2 0 3-1 3.29-4.25h1.08V23.4zM61.83 6c1.81-3.08.74-4-2.9-4V.87h12.83V2c-3.86.28-5.51 1.82-7.09 4.48l-9.42 15.9v8.51c0 3 1.08 4.2 4.54 4.2h.74v1.08H44.92v-1.08H46c3.52 0 4.54-1.31 4.54-4.09v-8L40.44 7.23C37.65 2.86 36.35 2.06 32.66 2V.87h15.1V2C43.33 2 43 3 44.75 5.64l9.08 14zm23.45 24.72c0 3.18 1 4.37 4.54 4.37h1.87v1.08H76v-1.08h.79c3 0 3.8-.62 3.8-3.29V5c0-2.1-.68-3-2.67-3h-2.86V.87c1.59-.06 4.37-.23 7.15-.34s5.51-.17 7-.17c11.86 0 14.58 5.68 14.58 10 0 6.64-5.33 10.84-13.73 10.84a23.1 23.1 0 0 1-4.82-.46v9.93zm0-11a14.57 14.57 0 0 0 3.07.46c6.18 0 10.16-4.2 10.16-9.93 0-4.43-1.76-8.8-9.31-8.8a22.93 22.93 0 0 0-3.92.23v18z"/><path class="cls-2" d="M123 .8l-17.56 35.39h-2.34L120.66.8H123z"/></svg>