<?xml version="1.0" encoding="utf-8"?>
<!-- Generator: Adobe Illustrator 19.1.0, SVG Export Plug-In . SVG Version: 6.00 Build 0)  -->
<svg version="1.1" id="Layer_1" xmlns="http://www.w3.org/2000/svg" xmlns:xlink="http://www.w3.org/1999/xlink" x="0px" y="0px"
	 viewBox="-754.2 525 204.4 36.8" style="enable-background:new -754.2 525 204.4 36.8;" xml:space="preserve">
<style type="text/css">
	.st0{fill:#F15F27;}
	.st1{fill:#45555f;}
</style>
<g>
	<g>
		<g>
			<path class="st0" fill="#F15F27" d="M-685,525.2h1.6l7.1,15.7h-1.8l-1.8-4.1h-8.5l-1.8,4.1h-1.9L-685,525.2z M-680.7,535.1l-3.5-7.9l-3.6,7.9
				H-680.7z"/>
		</g>
		<g>
			<path class="st0" fill="#F15F27" d="M-673.5,525.3h6.7c1.9,0,3.4,0.6,4.4,1.6c0.8,0.8,1.2,1.8,1.2,3.1l0,0c0,2.6-1.8,4.1-4.2,4.5l4.8,6.4h-2.2
				l-4.5-6h-4.4v6h-1.8V525.3z M-667,533.2c2.3,0,4-1.2,4-3.2l0,0c0-1.9-1.5-3.1-4-3.1h-4.8v6.3C-671.8,533.2-667,533.2-667,533.2z"
				/>
		</g>
		<g>
			<path class="st0" fill="#F15F27" d="M-658.5,533.1L-658.5,533.1c0-4.4,3.3-8.1,7.9-8.1c2.8,0,4.5,1,6.1,2.5l-1.2,1.3c-1.3-1.2-2.8-2.1-4.9-2.1
				c-3.4,0-6,2.8-6,6.4l0,0c0,3.6,2.6,6.4,6,6.4c2.1,0,3.5-0.8,5-2.2l1.2,1.1c-1.6,1.6-3.4,2.7-6.2,2.7
				C-655.2,541.1-658.5,537.6-658.5,533.1z"/>
		</g>
		<g>
			<path class="st0" fill="#F15F27" d="M-641.7,525.3h1.8v6.9h9v-6.9h1.8v15.6h-1.8v-7h-9v7h-1.8V525.3z"/>
		</g>
		<g>
			<path class="st0" fill="#F15F27" d="M-625,525.3h1.8v15.6h-1.8V525.3z"/>
		</g>
		<g>
			<path class="st0" fill="#F15F27" d="M-614.9,526.9h-5.2v-1.6h12.2v1.6h-5.2v13.9h-1.8V526.9z"/>
		</g>
		<g>
			<path class="st0" fill="#F15F27" d="M-604.9,525.3h11.2v1.6h-9.5v5.3h8.5v1.6h-8.5v5.4h9.6v1.6H-605L-604.9,525.3L-604.9,525.3z"/>
		</g>
		<g>
			<path class="st0" fill="#F15F27" d="M-591.1,533.1L-591.1,533.1c0-4.4,3.3-8.1,7.9-8.1c2.8,0,4.5,1,6.1,2.5l-1.2,1.3c-1.3-1.2-2.8-2.1-4.9-2.1
				c-3.4,0-6,2.8-6,6.4l0,0c0,3.6,2.6,6.4,6,6.4c2.1,0,3.5-0.8,5-2.2l1.2,1.1c-1.6,1.6-3.4,2.7-6.2,2.7
				C-587.8,541.1-591.1,537.6-591.1,533.1z"/>
		</g>
		<g>
			<path class="st0" fill="#F15F27" d="M-570.2,526.9h-5.2v-1.6h12.2v1.6h-5.2v13.9h-1.8V526.9z"/>
		</g>
		<g>
			<path class="st0" fill="#F15F27" d="M-561.6,538.6l1.1-1.3c1.6,1.5,3.2,2.2,5.3,2.2c2.1,0,3.5-1.1,3.5-2.6l0,0c0-1.4-0.8-2.3-4-3
				c-3.6-0.8-5.2-1.9-5.2-4.5l0,0c0-2.4,2.2-4.2,5.1-4.2c2.3,0,3.9,0.6,5.5,1.9l-1,1.4c-1.4-1.2-2.9-1.7-4.5-1.7
				c-2,0-3.3,1.1-3.3,2.5l0,0c0,1.5,0.8,2.3,4.2,3c3.5,0.8,5.1,2,5.1,4.4l0,0c0,2.7-2.2,4.4-5.3,4.4
				C-557.7,541-559.7,540.2-561.6,538.6z"/>
		</g>
	</g>
	<g>
		<g>
			<path class="st1" fill="#45555f" d="M-754.1,525.3h4.6l2.7,9l3-9h3.7l3,9l2.7-9h4.5l-5.2,15.6h-3.8l-3.1-9l-3.1,9h-3.8L-754.1,525.3z"/>
		</g>
		<g>
			<path class="st1" fill="#45555f" d="M-728,525.3h4.3v5.8h5.5v-5.8h4.3v15.6h-4.3v-6h-5.5v5.9h-4.3V525.3z"/>
		</g>
		<g>
			<path class="st1" fill="#45555f" d="M-710.3,525.3h7.4c2.4,0,4,0.6,5.1,1.7c0.9,0.9,1.4,2.1,1.4,3.6l0,0c0,2.4-1.3,4-3.2,4.8l3.7,5.4h-5
				l-3.2-4.7h-1.9v4.7h-4.3V525.3z M-703.1,532.7c1.4,0,2.3-0.7,2.3-1.8l0,0c0-1.3-0.9-1.9-2.3-1.9h-2.8v3.8L-703.1,532.7
				L-703.1,532.7z"/>
		</g>
	</g>
</g>
<g>
	<path class="st1" fill="#45555f" d="M-750.1,558.4c-0.2,0-0.5,0-0.7,0c-0.3,0-0.6,0-0.9-0.1c-0.2-0.1-0.4-0.2-0.6-0.4c-0.2-0.2-0.2-0.4-0.3-0.6
		c-0.1-0.3-0.1-0.6-0.1-0.9v-4h-1.4v-1h1.4v-2.3l1.2-0.3v2.6h2v1h-2v3.6c0,0.3,0,0.5,0,0.7c0,0.2,0.1,0.3,0.2,0.4
		c0.1,0.1,0.2,0.2,0.3,0.2c0.1,0,0.3,0.1,0.5,0.1c0.3,0,0.6,0,0.9-0.1l0.1,1C-749.5,558.3-749.7,558.4-750.1,558.4z"/>
	<path class="st1" fill="#45555f" d="M-743.2,558.3v-4.5c0-0.5-0.1-0.9-0.2-1.1c-0.2-0.3-0.5-0.4-0.9-0.4c-0.3,0-0.5,0.1-0.8,0.2
		c-0.3,0.1-0.4,0.3-0.6,0.6c-0.2,0.2-0.3,0.5-0.4,0.8c-0.1,0.3-0.1,0.7-0.1,1v3.3h-1.2V548h1.2v3.3c0,0.2,0,0.5,0,0.7
		c0,0.2-0.1,0.5-0.1,0.6l0,0c0.2-0.5,0.5-0.8,0.9-1.1c0.4-0.3,0.9-0.4,1.6-0.4c0.4,0,0.7,0.1,1,0.2c0.3,0.1,0.5,0.3,0.6,0.5
		c0.2,0.2,0.3,0.4,0.3,0.7s0.1,0.5,0.1,0.8v4.9L-743.2,558.3L-743.2,558.3z"/>
	<path class="st1" fill="#45555f" d="M-734.3,554.1c0,0.1,0,0.4,0,0.6h-4.6c0,0.9,0.1,1.6,0.5,2s0.9,0.6,1.7,0.6c0.3,0,0.7,0,1-0.1
		c0.3-0.1,0.6-0.2,0.9-0.3l0.2,1c-0.3,0.1-0.7,0.2-1.1,0.3c-0.4,0.1-0.8,0.1-1.2,0.1c-1,0-1.9-0.3-2.5-0.8c-0.6-0.5-0.8-1.4-0.8-2.7
		c0-0.5,0.1-1,0.2-1.4c0.1-0.4,0.3-0.8,0.6-1.1c0.3-0.3,0.6-0.6,0.9-0.7c0.3-0.1,0.8-0.3,1.3-0.3c0.5,0,0.9,0.1,1.2,0.2
		c0.3,0.1,0.6,0.4,0.8,0.6c0.2,0.3,0.4,0.6,0.5,0.9C-734.3,553.3-734.3,553.7-734.3,554.1z M-736,552.6c-0.3-0.3-0.6-0.5-1.1-0.5
		c-0.4,0-0.8,0.2-1.1,0.5c-0.3,0.3-0.5,0.7-0.6,1.2h3.3C-735.6,553.3-735.7,552.9-736,552.6z"/>
	<path class="st1" fill="#45555f" d="M-724.9,558.3v-4.5c0-0.5-0.1-0.9-0.2-1.1c-0.2-0.3-0.5-0.4-0.9-0.4c-0.3,0-0.5,0.1-0.8,0.2
		c-0.3,0.1-0.4,0.3-0.6,0.6c-0.2,0.2-0.3,0.5-0.4,0.8c-0.1,0.3-0.1,0.7-0.1,1v3.3h-1.2V548h1.2v3.3c0,0.2,0,0.5,0,0.7
		c0,0.2-0.1,0.5-0.1,0.6l0,0c0.2-0.5,0.5-0.8,0.9-1.1c0.4-0.3,0.9-0.4,1.6-0.4c0.4,0,0.7,0.1,1,0.2c0.3,0.1,0.5,0.3,0.6,0.5
		c0.2,0.2,0.3,0.4,0.3,0.7s0.1,0.5,0.1,0.8v4.9L-724.9,558.3L-724.9,558.3z"/>
	<path class="st1" fill="#45555f" d="M-716,554.1c0,0.1,0,0.4,0,0.6h-4.6c0,0.9,0.1,1.6,0.5,2c0.4,0.4,0.9,0.6,1.7,0.6c0.3,0,0.7,0,1-0.1
		c0.3-0.1,0.6-0.2,0.9-0.3l0.2,1c-0.3,0.1-0.7,0.2-1.1,0.3s-0.8,0.1-1.2,0.1c-1,0-1.9-0.3-2.5-0.8c-0.6-0.5-0.8-1.4-0.8-2.7
		c0-0.5,0.1-1,0.2-1.4c0.1-0.4,0.3-0.8,0.6-1.1s0.6-0.6,0.9-0.7c0.3-0.1,0.8-0.3,1.3-0.3s0.9,0.1,1.2,0.2c0.3,0.1,0.6,0.4,0.8,0.6
		c0.2,0.3,0.4,0.6,0.5,0.9C-716,553.3-716,553.7-716,554.1z M-717.6,552.6c-0.3-0.3-0.6-0.5-1.1-0.5c-0.4,0-0.8,0.2-1.1,0.5
		c-0.3,0.3-0.5,0.7-0.6,1.2h3.3C-717.2,553.3-717.3,552.9-717.6,552.6z"/>
	<path class="st1" fill="#45555f" d="M-710.4,558.3c0-0.2,0-0.5,0-0.7c0-0.2,0-0.4,0.1-0.6l0,0c-0.2,0.4-0.4,0.8-0.9,1c-0.5,0.2-0.9,0.4-1.4,0.4
		c-0.6,0-1-0.2-1.4-0.5c-0.3-0.3-0.5-0.8-0.5-1.3c0-0.7,0.4-1.3,1.1-1.8c0.7-0.4,1.8-0.6,3.1-0.6v-0.5c0-0.5-0.1-0.8-0.3-1.1
		c-0.2-0.3-0.6-0.4-1.2-0.4c-0.3,0-0.7,0-1,0.1c-0.4,0.1-0.7,0.2-0.9,0.4l-0.3-1c0.3-0.1,0.7-0.2,1.1-0.3c0.4-0.1,0.9-0.1,1.3-0.1
		c0.5,0,0.9,0.1,1.2,0.2c0.3,0.1,0.6,0.3,0.8,0.5c0.2,0.2,0.3,0.4,0.4,0.7s0.1,0.6,0.1,0.9v2.8c0,0.3,0,0.6,0,1c0,0.3,0,0.7,0,1
		h-1.2V558.3L-710.4,558.3z M-710.4,555c-0.6,0-1,0-1.4,0.1s-0.7,0.2-0.9,0.3c-0.2,0.1-0.4,0.3-0.5,0.4c-0.1,0.2-0.1,0.3-0.1,0.5
		c0,0.3,0.1,0.5,0.3,0.7c0.2,0.2,0.4,0.3,0.8,0.3c0.3,0,0.5-0.1,0.7-0.2c0.2-0.1,0.4-0.3,0.6-0.5c0.2-0.2,0.3-0.4,0.4-0.7
		C-710.4,555.7-710.4,555.5-710.4,555L-710.4,555z"/>
	<path class="st1" fill="#45555f" d="M-706.8,558.3V548h1.2v10.3H-706.8z"/>
	<path class="st1" fill="#45555f" d="M-700.2,558.4c-0.2,0-0.5,0-0.7,0c-0.3,0-0.6,0-0.9-0.1c-0.2-0.1-0.4-0.2-0.6-0.4c-0.2-0.2-0.2-0.4-0.3-0.6
		c-0.1-0.3-0.1-0.6-0.1-0.9v-4h-1.4v-1h1.4v-2.3l1.2-0.3v2.6h2v1h-2v3.6c0,0.3,0,0.5,0,0.7c0,0.2,0.1,0.3,0.2,0.4
		c0.1,0.1,0.2,0.2,0.3,0.2s0.3,0.1,0.5,0.1c0.3,0,0.6,0,0.9-0.1l0.1,1C-699.7,558.3-699.9,558.4-700.2,558.4z"/>
	<path class="st1" fill="#45555f" d="M-693.4,558.3v-4.5c0-0.5-0.1-0.9-0.2-1.1c-0.2-0.3-0.5-0.4-0.9-0.4c-0.3,0-0.5,0.1-0.8,0.2
		c-0.3,0.1-0.4,0.3-0.6,0.6c-0.2,0.2-0.3,0.5-0.4,0.8c-0.1,0.3-0.1,0.7-0.1,1v3.3h-1.2V548h1.2v3.3c0,0.2,0,0.5,0,0.7
		c0,0.2-0.1,0.5-0.1,0.6l0,0c0.2-0.5,0.5-0.8,0.9-1.1s0.9-0.4,1.6-0.4c0.4,0,0.7,0.1,1,0.2c0.3,0.1,0.5,0.3,0.6,0.5
		c0.2,0.2,0.3,0.4,0.3,0.7s0.1,0.5,0.1,0.8v4.9L-693.4,558.3L-693.4,558.3z"/>
	<path class="st1" fill="#45555f" d="M-686.3,558.3c-0.4,0.1-0.7,0.1-1,0.1c-0.4,0-0.8-0.1-1.1-0.2c-0.4-0.1-0.7-0.3-0.9-0.5
		c-0.3-0.2-0.5-0.6-0.6-1c-0.1-0.4-0.2-0.9-0.2-1.7c0-0.5,0.1-1,0.2-1.6c0.1-0.5,0.3-0.8,0.6-1.2c0.3-0.4,0.6-0.6,1-0.8
		s0.9-0.3,1.4-0.3c0.3,0,0.6,0,0.9,0.1c0.3,0,0.5,0.1,0.8,0.2l-0.2,1c-0.2-0.1-0.4-0.2-0.7-0.2c-0.3-0.1-0.5-0.1-0.8-0.1
		c-0.3,0-0.6,0.1-0.8,0.2s-0.4,0.3-0.6,0.5c-0.2,0.2-0.3,0.5-0.4,0.8c-0.1,0.3-0.1,0.6-0.1,1c0,0.3,0,0.6,0.1,0.9
		c0.1,0.3,0.2,0.5,0.3,0.8c0.1,0.2,0.3,0.4,0.6,0.5s0.6,0.2,0.9,0.2c0.6,0,1.1-0.1,1.7-0.3l0.2,1
		C-685.5,558.2-685.9,558.3-686.3,558.3z"/>
	<path class="st1" fill="#45555f" d="M-680,558.3c0-0.2,0-0.5,0-0.7c0-0.2,0-0.4,0.1-0.6l0,0c-0.2,0.4-0.4,0.8-0.9,1c-0.5,0.2-0.9,0.4-1.4,0.4
		c-0.6,0-1-0.2-1.4-0.5c-0.3-0.3-0.5-0.8-0.5-1.3c0-0.7,0.4-1.3,1.1-1.8c0.7-0.4,1.8-0.6,3.1-0.6v-0.5c0-0.5-0.1-0.8-0.3-1.1
		c-0.2-0.3-0.6-0.4-1.2-0.4c-0.3,0-0.7,0-1,0.1c-0.4,0.1-0.7,0.2-0.9,0.4l-0.3-1c0.3-0.1,0.7-0.2,1.1-0.3c0.4-0.1,0.9-0.1,1.3-0.1
		c0.5,0,0.9,0.1,1.2,0.2c0.3,0.1,0.6,0.3,0.8,0.5c0.2,0.2,0.3,0.4,0.4,0.7c0.1,0.3,0.1,0.6,0.1,0.9v2.8c0,0.3,0,0.6,0,1
		c0,0.3,0,0.7,0,1h-1.2V558.3L-680,558.3z M-680,555c-0.6,0-1,0-1.4,0.1c-0.4,0.1-0.7,0.2-0.9,0.3s-0.4,0.3-0.5,0.4
		c-0.1,0.2-0.1,0.3-0.1,0.5c0,0.3,0.1,0.5,0.3,0.7c0.2,0.2,0.4,0.3,0.8,0.3c0.3,0,0.5-0.1,0.7-0.2c0.2-0.1,0.4-0.3,0.6-0.5
		c0.2-0.2,0.3-0.4,0.4-0.7C-680,555.7-680,555.5-680,555L-680,555z"/>
	<path class="st1" fill="#45555f" d="M-672.9,552.5c-0.7-0.1-1.2,0.1-1.7,0.6c-0.3,0.5-0.5,1.3-0.5,2.5v2.8h-1.2v-7h1.2c0,0.2,0,0.5,0,0.7
		c0,0.3-0.1,0.6-0.1,0.9l0,0c0.1-0.2,0.2-0.5,0.3-0.7s0.3-0.4,0.5-0.6c0.2-0.2,0.4-0.3,0.7-0.4s0.6-0.1,0.9-0.1L-672.9,552.5z"/>
	<path class="st1" fill="#45555f" d="M-666.2,554.1c0,0.1,0,0.4,0,0.6h-4.6c0,0.9,0.1,1.6,0.5,2c0.4,0.4,0.9,0.6,1.7,0.6c0.3,0,0.7,0,1-0.1
		c0.3-0.1,0.6-0.2,0.9-0.3l0.2,1c-0.3,0.1-0.7,0.2-1.1,0.3s-0.8,0.1-1.2,0.1c-1,0-1.9-0.3-2.5-0.8c-0.6-0.5-0.8-1.4-0.8-2.7
		c0-0.5,0.1-1,0.2-1.4c0.1-0.4,0.3-0.8,0.6-1.1s0.6-0.6,0.9-0.7c0.3-0.1,0.8-0.3,1.3-0.3s0.9,0.1,1.2,0.2c0.3,0.1,0.6,0.4,0.8,0.6
		c0.2,0.3,0.4,0.6,0.5,0.9C-666.3,553.3-666.2,553.7-666.2,554.1z M-667.8,552.6c-0.3-0.3-0.6-0.5-1.1-0.5c-0.4,0-0.8,0.2-1.1,0.5
		c-0.3,0.3-0.5,0.7-0.6,1.2h3.3C-667.4,553.3-667.6,552.9-667.8,552.6z"/>
	<path class="st1" fill="#45555f" d="M-655.2,554.4c0,1.2-0.3,2.2-0.9,2.9c-0.6,0.7-1.6,1-2.7,1c-0.2,0-0.4,0-0.6,0c-0.2,0-0.4,0-0.6-0.1v3.5h-1.2
		v-10.5h1.2c0,0.2,0,0.4,0,0.7s0,0.5-0.1,0.7l0,0c0.2-0.5,0.5-0.8,0.9-1.1c0.4-0.3,0.9-0.4,1.4-0.4c0.8,0,1.4,0.3,1.9,0.8
		C-655.5,552.6-655.2,553.4-655.2,554.4z M-656.6,554.5c0-0.7-0.1-1.3-0.4-1.8c-0.3-0.4-0.6-0.6-1.1-0.6c-0.3,0-0.6,0.1-0.8,0.2
		c-0.2,0.2-0.4,0.4-0.6,0.6c-0.2,0.2-0.3,0.5-0.3,0.8c0,0.3-0.1,0.6-0.1,0.9v2.3c0.4,0.1,0.7,0.2,1.2,0.2c0.3,0,0.6,0,0.9-0.1
		c0.3-0.1,0.5-0.3,0.7-0.5c0.2-0.2,0.3-0.5,0.4-0.8C-656.6,555.5-656.6,555-656.6,554.5z"/>
	<path class="st1" fill="#45555f" d="M-649.9,552.5c-0.7-0.1-1.2,0.1-1.7,0.6c-0.3,0.5-0.5,1.3-0.5,2.5v2.8h-1.2v-7h1.2c0,0.2,0,0.5,0,0.7
		c0,0.3-0.1,0.6-0.1,0.9l0,0c0.1-0.2,0.2-0.5,0.3-0.7c0.1-0.2,0.3-0.4,0.5-0.6c0.2-0.2,0.4-0.3,0.7-0.4c0.3-0.1,0.6-0.1,0.9-0.1
		L-649.9,552.5z"/>
	<path class="st1" fill="#45555f" d="M-645,558.3c0-0.2,0-0.5,0-0.7c0-0.2,0-0.4,0.1-0.6l0,0c-0.2,0.4-0.4,0.8-0.8,1c-0.4,0.3-0.9,0.4-1.4,0.4
		c-0.6,0-1-0.2-1.4-0.5c-0.3-0.3-0.5-0.8-0.5-1.3c0-0.7,0.4-1.3,1.1-1.8c0.7-0.4,1.8-0.6,3.1-0.6v-0.5c0-0.5-0.1-0.8-0.3-1.1
		c-0.2-0.3-0.6-0.4-1.2-0.4c-0.3,0-0.7,0-1,0.1c-0.4,0.1-0.7,0.2-0.9,0.4l-0.3-1c0.3-0.1,0.7-0.2,1.1-0.3c0.4-0.1,0.8-0.1,1.3-0.1
		s0.9,0.1,1.2,0.2c0.3,0.1,0.6,0.3,0.8,0.5c0.2,0.2,0.3,0.4,0.4,0.7s0.1,0.6,0.1,0.9v2.8c0,0.3,0,0.6,0,1c0,0.3,0,0.7,0,1h-1.3
		L-645,558.3L-645,558.3z M-645.1,555c-0.6,0-1,0-1.4,0.1c-0.4,0.1-0.7,0.2-0.9,0.3c-0.2,0.1-0.4,0.3-0.5,0.4
		c-0.1,0.2-0.1,0.3-0.1,0.5c0,0.3,0.1,0.5,0.3,0.7c0.2,0.2,0.4,0.3,0.8,0.3c0.3,0,0.5-0.1,0.7-0.2c0.2-0.1,0.4-0.3,0.6-0.5
		c0.2-0.2,0.3-0.4,0.4-0.7C-645.1,555.7-645.1,555.5-645.1,555L-645.1,555z"/>
	<path class="st1" fill="#45555f" d="M-637.8,558.3c-0.4,0.1-0.7,0.1-1,0.1c-0.4,0-0.8-0.1-1.1-0.2c-0.4-0.1-0.7-0.3-0.9-0.5
		c-0.3-0.2-0.5-0.6-0.6-1c-0.2-0.4-0.2-0.9-0.2-1.7c0-0.5,0.1-1,0.2-1.6c0.1-0.5,0.3-0.8,0.6-1.2c0.3-0.3,0.6-0.6,1-0.8
		c0.4-0.2,0.9-0.3,1.4-0.3c0.3,0,0.6,0,0.9,0.1c0.3,0,0.5,0.1,0.8,0.2l-0.2,1c-0.2-0.1-0.4-0.2-0.7-0.2c-0.3-0.1-0.5-0.1-0.8-0.1
		c-0.3,0-0.6,0.1-0.8,0.2c-0.2,0.1-0.4,0.3-0.6,0.5c-0.2,0.2-0.3,0.5-0.4,0.8c-0.1,0.3-0.1,0.6-0.1,1c0,0.3,0,0.6,0.1,0.9
		c0.1,0.3,0.2,0.5,0.3,0.8c0.1,0.2,0.3,0.4,0.6,0.5c0.2,0.1,0.6,0.2,0.9,0.2c0.6,0,1.1-0.1,1.7-0.3l0.2,1
		C-637.1,558.2-637.5,558.3-637.8,558.3z"/>
	<path class="st1" fill="#45555f" d="M-632.2,558.4c-0.2,0-0.5,0-0.7,0c-0.3,0-0.6,0-0.9-0.1c-0.3-0.1-0.4-0.2-0.6-0.4c-0.2-0.2-0.2-0.4-0.3-0.6
		c-0.1-0.3-0.1-0.6-0.1-0.9v-4h-1.4v-1h1.4v-2.3l1.2-0.3v2.6h2v1h-2v3.6c0,0.3,0,0.5,0,0.7c0,0.2,0.1,0.3,0.2,0.4s0.2,0.2,0.3,0.2
		c0.1,0,0.3,0.1,0.5,0.1c0.3,0,0.6,0,0.9-0.1l0.1,1C-631.7,558.3-632,558.4-632.2,558.4z"/>
	<path class="st1" fill="#45555f"  d="M-628.4,549c0,0.2-0.1,0.4-0.2,0.6c-0.2,0.2-0.4,0.2-0.6,0.2c-0.2,0-0.4-0.1-0.6-0.2c-0.2-0.1-0.2-0.3-0.2-0.6
		s0.1-0.4,0.2-0.6c0.2-0.2,0.4-0.2,0.6-0.2c0.2,0,0.4,0.1,0.6,0.2C-628.5,548.6-628.4,548.8-628.4,549z M-629.8,558.3v-7h1.2v7
		H-629.8z"/>
	<path class="st1" fill="#45555f" d="M-622.7,558.3c-0.4,0.1-0.7,0.1-1,0.1c-0.4,0-0.8-0.1-1.1-0.2c-0.4-0.1-0.7-0.3-0.9-0.5
		c-0.3-0.2-0.5-0.6-0.6-1c-0.2-0.4-0.2-0.9-0.2-1.7c0-0.5,0.1-1,0.2-1.6c0.1-0.5,0.3-0.8,0.6-1.2c0.3-0.3,0.6-0.6,1-0.8
		s0.9-0.3,1.4-0.3c0.3,0,0.6,0,0.9,0.1c0.3,0,0.5,0.1,0.8,0.2l-0.2,1c-0.2-0.1-0.4-0.2-0.7-0.2c-0.3-0.1-0.5-0.1-0.8-0.1
		s-0.6,0.1-0.8,0.2s-0.4,0.3-0.6,0.5c-0.2,0.2-0.3,0.5-0.4,0.8c-0.1,0.3-0.1,0.6-0.1,1c0,0.3,0,0.6,0.1,0.9c0.1,0.3,0.2,0.5,0.3,0.8
		c0.1,0.2,0.3,0.4,0.6,0.5c0.2,0.1,0.6,0.2,0.9,0.2c0.6,0,1.1-0.1,1.7-0.3l0.2,1C-622,558.2-622.3,558.3-622.7,558.3z"/>
	<path class="st1" fill="#45555f" d="M-614.8,554.1c0,0.1,0,0.4,0,0.6h-4.6c0,0.9,0.1,1.6,0.5,2c0.4,0.4,0.9,0.6,1.7,0.6c0.3,0,0.7,0,1-0.1
		s0.6-0.2,0.9-0.3l0.2,1c-0.3,0.1-0.7,0.2-1.1,0.3c-0.4,0.1-0.8,0.1-1.2,0.1c-1,0-1.9-0.3-2.5-0.8c-0.5-0.6-0.8-1.4-0.8-2.7
		c0-0.5,0.1-1,0.2-1.4c0.1-0.4,0.3-0.8,0.6-1.1c0.3-0.3,0.6-0.6,0.9-0.7c0.4-0.2,0.8-0.3,1.3-0.3s0.9,0.1,1.2,0.2
		c0.3,0.1,0.6,0.4,0.8,0.6c0.2,0.3,0.4,0.6,0.5,0.9C-614.8,553.3-614.8,553.7-614.8,554.1z M-616.5,552.6c-0.3-0.3-0.6-0.5-1.1-0.5
		c-0.4,0-0.8,0.2-1.1,0.5c-0.3,0.3-0.5,0.7-0.6,1.2h3.3C-616.1,553.3-616.2,552.9-616.5,552.6z"/>
	<path class="st1" fill="#45555f" d="M-603.9,554.6c0,0.5-0.1,1-0.2,1.4c-0.2,0.4-0.4,0.8-0.7,1.1c-0.3,0.3-0.6,0.6-1,0.8c-0.4,0.2-0.9,0.3-1.4,0.3
		s-0.9-0.1-1.3-0.2c-0.4-0.1-0.7-0.3-1-0.6s-0.5-0.6-0.6-1.1c-0.1-0.4-0.2-0.9-0.2-1.6c0-0.5,0.1-1,0.2-1.4c0.1-0.4,0.4-0.8,0.7-1.1
		c0.3-0.3,0.6-0.6,1-0.8c0.4-0.2,0.9-0.3,1.4-0.3c0.4,0,0.8,0.1,1.2,0.2c0.4,0.1,0.7,0.3,1,0.6c0.3,0.3,0.5,0.6,0.6,1.1
		S-603.9,554-603.9,554.6z M-605.3,554.7c0-0.8-0.2-1.4-0.5-1.9c-0.3-0.4-0.8-0.6-1.4-0.6c-0.2,0-0.5,0-0.7,0.1
		c-0.2,0.1-0.4,0.2-0.6,0.4s-0.3,0.5-0.4,0.8c-0.1,0.3-0.2,0.7-0.2,1.1c0,0.8,0.2,1.6,0.5,2s0.8,0.6,1.4,0.6c0.3,0,0.5,0,0.7-0.2
		c0.2-0.1,0.4-0.3,0.6-0.5c0.2-0.2,0.3-0.5,0.4-0.8C-605.3,555.6-605.3,555.1-605.3,554.7z"/>
	<path class="st1" fill="#45555f" d="M-598.1,549.1c-0.2-0.1-0.3-0.1-0.5-0.1s-0.3,0-0.5,0c-0.5,0-0.8,0.1-1.1,0.4c-0.2,0.3-0.3,0.7-0.3,1.3v0.5h2
		v1h-2v6h-1.2v-6h-1.4v-1h1.4v-0.5c0-0.9,0.2-1.7,0.7-2.2c0.4-0.4,1.1-0.7,2-0.7c0.4,0,0.7,0,1.1,0.1L-598.1,549.1z"/>
	<path class="st1" fill="#45555f" d="M-594.2,558.3v-9.5h4.9v1h-3.6v3h3.4v1h-3.4v3.3h3.6v1h-4.9V558.3z"/>
	<path class="st1" fill="#45555f" d="M-584.2,554.8v3.4h-1.3v-3.4l-3-6.1h1.4l1.6,3.2c0.3,0.5,0.5,1.1,0.7,1.7l0,0c0.1-0.3,0.2-0.6,0.4-0.9
		c0.2-0.3,0.3-0.6,0.4-0.9l1.4-3h1.3L-584.2,554.8z"/>
	<path class="st1" fill="#45555f" d="M-574.2,551.5c0,0.5-0.1,0.9-0.3,1.2s-0.4,0.7-0.7,1c-0.3,0.3-0.7,0.5-1.1,0.6c-0.4,0.1-0.9,0.2-1.4,0.2
		c-0.1,0-0.2,0-0.4,0c-0.1,0-0.2,0-0.4,0v3.6h-1.3v-9.5c0.3,0,0.7,0,1.1,0c0.4,0,0.8,0,1.2,0c1.1,0,2,0.2,2.5,0.7
		C-574.5,550-574.2,550.7-574.2,551.5z M-575.6,551.6c0-0.6-0.2-1-0.5-1.3c-0.3-0.3-0.9-0.5-1.7-0.5c-0.2,0-0.3,0-0.5,0
		c-0.1,0-0.3,0-0.4,0v3.7c0.1,0,0.2,0,0.4,0c0.1,0,0.3,0,0.4,0c0.7,0,1.2-0.2,1.7-0.5C-575.8,552.8-575.6,552.2-575.6,551.6z"/>
	<path class="st1" fill="#45555f" d="M-569.5,558.3v-9.5h1.3v9.5H-569.5z"/>
	<path class="st1" fill="#45555f" d="M-561.4,558.3v-4.5c0-0.5-0.1-0.9-0.2-1.1c-0.2-0.3-0.5-0.4-0.9-0.4c-0.3,0-0.5,0.1-0.8,0.2
		c-0.2,0.1-0.4,0.3-0.6,0.6c-0.2,0.3-0.3,0.5-0.4,0.8c-0.1,0.3-0.1,0.7-0.1,1v3.3h-1.2v-7h1.2c0,0.2,0,0.4,0,0.7
		c0,0.3,0,0.5-0.1,0.7l0,0c0.2-0.5,0.5-0.8,0.9-1.1c0.4-0.3,0.9-0.4,1.6-0.4c0.4,0,0.7,0.1,1,0.2c0.3,0.1,0.5,0.3,0.6,0.5
		c0.2,0.2,0.3,0.4,0.3,0.7c0.1,0.3,0.1,0.5,0.1,0.8v4.9L-561.4,558.3L-561.4,558.3z"/>
	<path class="st1" fill="#45555f" d="M-554.1,558.3c-0.4,0.1-0.7,0.1-1,0.1c-0.4,0-0.8-0.1-1.1-0.2c-0.4-0.1-0.7-0.3-0.9-0.5
		c-0.3-0.2-0.5-0.6-0.6-1c-0.2-0.4-0.2-0.9-0.2-1.7c0-0.5,0.1-1,0.2-1.6c0.1-0.5,0.3-0.8,0.6-1.2c0.3-0.3,0.6-0.6,1-0.8
		s0.9-0.3,1.4-0.3c0.3,0,0.6,0,0.9,0.1c0.3,0,0.5,0.1,0.8,0.2l-0.2,1c-0.2-0.1-0.4-0.2-0.7-0.2c-0.3-0.1-0.5-0.1-0.8-0.1
		s-0.6,0.1-0.8,0.2s-0.4,0.3-0.6,0.5c-0.2,0.2-0.3,0.5-0.4,0.8c-0.1,0.3-0.1,0.6-0.1,1c0,0.3,0,0.6,0.1,0.9c0.1,0.3,0.2,0.5,0.3,0.8
		c0.1,0.2,0.3,0.4,0.6,0.5c0.2,0.1,0.6,0.2,0.9,0.2c0.6,0,1.1-0.1,1.7-0.3l0.2,1C-553.4,558.2-553.8,558.3-554.1,558.3z"/>
	<path class="st1" fill="#45555f" d="M-550.1,557.5c0,0.2-0.1,0.4-0.2,0.6c-0.1,0.2-0.4,0.2-0.6,0.2s-0.4-0.1-0.6-0.2s-0.2-0.4-0.2-0.6
		c0-0.2,0.1-0.4,0.2-0.6c0.1-0.2,0.4-0.2,0.6-0.2c0.2,0,0.4,0.1,0.6,0.2C-550.1,557-550.1,557.3-550.1,557.5z"/>
</g>
</svg>
