<?xml version="1.0" encoding="utf-8"?>
<!-- Generator: Adobe Illustrator 21.1.0, SVG Export Plug-In . SVG Version: 6.00 Build 0)  -->
<svg version="1.1" id="Layer_1" xmlns="http://www.w3.org/2000/svg" xmlns:xlink="http://www.w3.org/1999/xlink" x="0px" y="0px"
	 viewBox="0 0 359.5 189" style="enable-background:new 0 0 359.5 189;" xml:space="preserve">
<style type="text/css">
	.st0{display:none;}
	.st1{fill:#FFFFFF;stroke:#FFFFFF;stroke-width:2;stroke-miterlimit:10;}
	.st2{fill:#654EA1;}
	.st3{fill:#039B76;}
	.st4{fill:#FFFFFF;}
</style>
<g id="Layer_2" class="st0">
</g>
<g>
	<g>
		<g>
			<path class="st1" d="M90.7,94.7l23.1,50.8c0.7,1.2,1.2,3,1.2,3.5c0,0.9-0.7,1.6-2,1.6H96.2c-1.3,0-2.5-0.7-2.9-1.6L69.4,97
				c-0.2-0.2-0.4-0.4-0.7-0.4h-34c-0.4,0-0.7,0.2-0.8,0.7L23.7,148c-0.2,1.3-1.8,2.7-3.1,2.7H6.2c-1.3,0-2.2-1.2-2.2-2.2
				c0-0.4,0.4-2.7,2.2-9.6l27.4-132c0.2-1,1-2.1,2.6-2.2H89c29.3,0,44.1,16.5,44.1,39.1C133,68.4,116.2,89.6,90.7,94.7z M49.7,22.2
				L37.3,79.6c-0.1,0.5,0.3,1,0.8,1h32.8c21.1,0,42.4-14.1,42.4-36.9c0.2-13.7-8.1-22.1-27.5-22.1H50.5
				C50.1,21.6,49.8,21.8,49.7,22.2z"/>
			<path class="st1" d="M158.5,147.2c-0.2,1.3-2.9,3.4-4.2,3.4h-12.1c-1.3,0-3.1-2-3.1-3c0-0.7,0.3-2.5,0.7-4.6l10-57
				c0.4-1.4,2.8-3.2,4.1-3.2h12.2c1.3,0,3,1.5,2.9,2.6L158.5,147.2z"/>
			<path class="st1" d="M229.2,66.8l-13.7,79.9c-0.2,1.3-3.1,3.9-4.4,3.9l-12.2,0.2c-1.3,0-3.1-2.5-3.1-3.7c0-0.4,0.2-1.6,0.4-2.7
				l13.2-77.7h-17.8c-1.3,0-2.7-1.8-2.5-3.1l2-10.8c0.2-1.3,2.5-3.1,3.8-3.1h17.8l3.6-16.4C221,8.4,227.7,3,250.7,5.5
				c7.8,0.8,10.4,1.4,13.8,3.2c2,1.2,3.9,0.8,1.3,6.5l-3.8,7.6c-0.9,1.8-2.1,1.6-4.4,0.5c-4.5-1.8-7.3-1.9-7.3-1.9
				c-7.2-0.7-11.7-1.9-14.4,11.8l-3.6,16.4h38.5l4-20.8c0.2-1.3,3.4-3.8,4.7-3.8h12.1c1.3,0,3.1,2.5,2.9,3.8l-4,20.8h17.8
				c1.3,0,2.5,1.6,2.5,2.9c0,0.2-0.2,1.6-0.4,2.7l-1.6,8.3c-0.2,1.3-2.5,3.1-3.8,3.1h-17.8l-8.3,51.6c-0.4,2.5-0.9,5.3-0.9,7.2
				c0,8.3,5.3,8.6,10.9,8.6c4.4,0,6.7,0.1,10.5-2c2.5-1.3,3.6-0.2,4.3,1.6c0,0,2.7,12.3,0.4,13.4c-4.9,2.7-13,3.1-21.5,3.1
				c-14.8,0-24.3-6.7-24.3-21.2c0-2.9,0.2-7.4,0.9-10.8l8.3-51.6h-38.3V66.8z"/>
		</g>
		<g>
			<path class="st2" d="M327.6,45.9c0.2-1.1,1.2-2.3,3.9-0.9c0,0,23.1,9,25.4,11.3c1.2,1.2,1.2,2.6,0,3.8
				c-2.1,2-27.2,11.5-29.8,12.3c-1.3,0.4-3.3-0.2-3-2.4C324.4,66.6,327.6,45.9,327.6,45.9z"/>
		</g>
	</g>
</g>
<path class="st3" d="M176.9,59.5c0,8.9-8.2,16-17,16s-15-7.2-15-16s9.2-16,18-16S176.9,50.6,176.9,59.5z"/>
<g>
	<path class="st4" d="M16,180.5h-3.5v-1.3c-0.5,0.8-1.5,1.7-3.4,1.7c-1.6,0-2.7-0.5-3.7-1.5c-1.1-1.1-1.7-2.6-1.7-4.3
		c0-1.8,0.6-3.2,1.7-4.2c0.9-0.9,2.3-1.4,3.7-1.4c1.2,0,2.5,0.4,3.3,1.6v-8H16V180.5z M8.2,173.1c-0.5,0.5-0.8,1.2-0.8,2
		c0,0.8,0.3,1.5,0.8,2c0.5,0.5,1.2,0.7,1.8,0.7c0.6,0,1.4-0.3,2-0.8c0.4-0.4,0.8-1,0.8-1.9c0-0.9-0.4-1.5-0.8-2
		c-0.6-0.6-1.2-0.8-1.9-0.8C9.4,172.4,8.8,172.6,8.2,173.1z"/>
	<path class="st4" d="M29.8,175.7h-8c0,0.6,0.2,1.3,0.6,1.8c0.5,0.6,1.2,0.7,1.8,0.7c0.5,0,1-0.1,1.4-0.3c0,0,0.5-0.3,0.7-0.9
		l3.3,0.3c-0.5,1.5-1.4,2.3-2.1,2.7c-1,0.6-2.2,0.8-3.4,0.8c-1.6,0-3-0.3-4.3-1.5c-0.9-0.9-1.6-2.4-1.6-4.1c0-1.5,0.6-3.1,1.6-4.2
		c1.3-1.3,2.9-1.5,4.1-1.5c1.2,0,2.9,0.2,4.2,1.6c1.3,1.3,1.5,3,1.5,4.3V175.7z M26.6,173.7c0-0.1-0.2-0.8-0.7-1.2
		c-0.4-0.4-0.9-0.6-1.6-0.6c-0.9,0-1.4,0.4-1.8,0.7c-0.3,0.3-0.5,0.7-0.6,1.2H26.6z"/>
	<path class="st4" d="M38.5,172.5c-0.5-0.3-1.2-0.6-1.9-0.6c-0.4,0-0.8,0.1-1,0.3c-0.1,0.1-0.2,0.3-0.2,0.5c0,0.2,0.2,0.4,0.3,0.5
		c0.2,0.1,0.6,0.2,1,0.4l0.9,0.3c0.6,0.2,1.2,0.4,1.8,0.9c0.6,0.6,0.8,1.2,0.8,2c0,1.4-0.6,2.3-1.1,2.8c-1.1,1.1-2.4,1.2-3.5,1.2
		c-1.4,0-3-0.3-4.4-1.5l1.5-2.3c0.3,0.3,0.8,0.6,1.2,0.8c0.5,0.2,1,0.3,1.4,0.3c0.2,0,0.8,0,1.1-0.2c0.2-0.2,0.4-0.4,0.4-0.7
		c0-0.2-0.1-0.4-0.4-0.6c-0.2-0.1-0.6-0.2-1.1-0.4l-0.9-0.3c-0.6-0.2-1.3-0.5-1.7-1c-0.5-0.5-0.8-1.1-0.8-1.9c0-1,0.4-1.9,1-2.5
		c1-0.9,2.3-1.1,3.2-1.1c1.6,0,2.7,0.4,3.6,0.9L38.5,172.5z"/>
	<path class="st4" d="M44.3,163.2c1.1,0,2,0.9,2,2s-0.9,2-2,2c-1.1,0-2-0.9-2-2S43.2,163.2,44.3,163.2z M46,169.8v10.7h-3.5v-10.7
		H46z"/>
	<path class="st4" d="M57.1,169.8h3.5v10.1c0,1.5-0.1,3.2-1.3,4.6c-1.3,1.4-3.3,1.6-4.5,1.6c-1.4,0-3.1-0.2-4.5-1.4
		c-0.7-0.6-1.4-1.5-1.6-2.8h3.8c0.1,0.6,0.5,0.9,0.8,1.1c0.4,0.3,1,0.4,1.5,0.4c1,0,1.5-0.4,1.7-0.6c0.7-0.6,0.7-1.8,0.7-2.2v-1.2
		c-0.4,0.7-1.2,1.6-3.2,1.6c-1.7,0-2.9-0.5-3.9-1.5c-0.9-0.9-1.6-2.2-1.6-4c0-1.8,0.7-3.3,1.6-4.3c0.6-0.7,1.9-1.5,3.9-1.5
		c1.9,0,2.8,1,3.2,1.6V169.8z M52.8,173.1c-0.5,0.5-0.8,1.3-0.8,2c0,0.7,0.3,1.4,0.7,1.9s1.1,0.8,1.9,0.8c0.9,0,1.5-0.4,1.9-0.7
		c0.5-0.5,0.8-1.2,0.8-2c0-0.8-0.4-1.5-0.8-2c-0.5-0.5-1.2-0.7-1.9-0.7C53.9,172.4,53.2,172.7,52.8,173.1z"/>
	<path class="st4" d="M63.2,169.8h3.5v1.3c1.1-1.3,2.3-1.6,3.3-1.6c0.9,0,2.2,0.2,3.1,1.1c1,1,1.1,2.3,1.1,3.1v6.8h-3.5V175
		c0-0.7,0-1.6-0.6-2.1c-0.3-0.3-0.7-0.5-1.3-0.5c-0.7,0-1.2,0.3-1.4,0.6c-0.6,0.6-0.7,1.3-0.7,2v5.5h-3.5V169.8z"/>
	<path class="st4" d="M87.8,175.7h-8c0,0.6,0.2,1.3,0.6,1.8c0.5,0.6,1.2,0.7,1.8,0.7c0.5,0,1-0.1,1.4-0.3c0,0,0.5-0.3,0.7-0.9
		l3.3,0.3c-0.5,1.5-1.4,2.3-2.1,2.7c-1,0.6-2.2,0.8-3.4,0.8c-1.6,0-3-0.3-4.3-1.5c-0.9-0.9-1.6-2.4-1.6-4.1c0-1.5,0.6-3.1,1.6-4.2
		c1.3-1.3,2.9-1.5,4.1-1.5c1.2,0,2.9,0.2,4.2,1.6c1.3,1.3,1.5,3,1.5,4.3V175.7z M84.6,173.7c0-0.1-0.2-0.8-0.7-1.2
		c-0.4-0.4-0.9-0.6-1.6-0.6c-0.9,0-1.4,0.4-1.8,0.7c-0.3,0.3-0.5,0.7-0.6,1.2H84.6z"/>
	<path class="st4" d="M101.6,180.5h-3.5v-1.3c-0.5,0.8-1.5,1.7-3.4,1.7c-1.6,0-2.7-0.5-3.7-1.5c-1.1-1.1-1.7-2.6-1.7-4.3
		c0-1.8,0.6-3.2,1.7-4.2c0.9-0.9,2.3-1.4,3.7-1.4c1.2,0,2.5,0.4,3.3,1.6v-8h3.5V180.5z M93.8,173.1c-0.5,0.5-0.8,1.2-0.8,2
		c0,0.8,0.3,1.5,0.8,2c0.5,0.5,1.2,0.7,1.8,0.7c0.6,0,1.4-0.3,2-0.8c0.4-0.4,0.8-1,0.8-1.9c0-0.9-0.4-1.5-0.8-2
		c-0.6-0.6-1.2-0.8-1.9-0.8C95,172.4,94.4,172.6,93.8,173.1z"/>
	<path class="st4" d="M112,163.2c1.1,0,2,0.9,2,2s-0.9,2-2,2c-1.1,0-2-0.9-2-2S110.9,163.2,112,163.2z M113.7,169.8v10.7h-3.5v-10.7
		H113.7z"/>
	<path class="st4" d="M116.6,169.8h3.5v1.3c1.1-1.3,2.3-1.6,3.3-1.6c0.9,0,2.2,0.2,3.1,1.1c1,1,1.1,2.3,1.1,3.1v6.8h-3.5V175
		c0-0.7,0-1.6-0.6-2.1c-0.3-0.3-0.7-0.5-1.3-0.5c-0.7,0-1.2,0.3-1.4,0.6c-0.6,0.6-0.7,1.3-0.7,2v5.5h-3.5V169.8z"/>
	<path class="st4" d="M139.4,172.6v7.9h-3.5v-7.9h-1.2v-2.8h1.2v-3.5h3.5v3.5h2.1v2.8H139.4z"/>
	<path class="st4" d="M143.1,163h3.5v8.1c0.4-0.5,0.9-0.9,1.3-1.1c0.7-0.4,1.3-0.5,2.1-0.5c0.8,0,2.1,0.1,3,1.1c1,1,1.1,2.3,1.1,3.1
		v6.8h-3.5V175c0-0.7,0-1.6-0.6-2.1c-0.3-0.3-0.8-0.5-1.3-0.5c-0.7,0-1.2,0.3-1.4,0.5c-0.7,0.7-0.7,1.7-0.7,2.2v5.4h-3.5V163z"/>
	<path class="st4" d="M167.2,175.7h-8c0,0.6,0.2,1.3,0.6,1.8c0.5,0.6,1.2,0.7,1.8,0.7c0.5,0,1-0.1,1.4-0.3c0,0,0.5-0.3,0.7-0.9
		l3.3,0.3c-0.5,1.5-1.4,2.3-2.1,2.7c-1,0.6-2.2,0.8-3.4,0.8c-1.6,0-3-0.3-4.3-1.5c-0.9-0.9-1.6-2.4-1.6-4.1c0-1.5,0.6-3.1,1.6-4.2
		c1.3-1.3,2.9-1.5,4.1-1.5c1.2,0,2.9,0.2,4.2,1.6c1.3,1.3,1.5,3,1.5,4.3V175.7z M164,173.7c0-0.1-0.2-0.8-0.7-1.2
		c-0.4-0.4-0.9-0.6-1.6-0.6c-0.9,0-1.4,0.4-1.8,0.7c-0.3,0.3-0.5,0.7-0.6,1.2H164z"/>
	<path class="st4" d="M179,170.6h6.4v-6.1h3.7v16h-3.7v-6.8H179v6.8h-3.7v-16h3.7V170.6z"/>
	<path class="st4" d="M203.2,175.7h-8c0,0.6,0.2,1.3,0.6,1.8c0.5,0.6,1.2,0.7,1.8,0.7c0.5,0,1-0.1,1.4-0.3c0,0,0.5-0.3,0.7-0.9
		l3.3,0.3c-0.5,1.5-1.4,2.3-2.1,2.7c-1,0.6-2.2,0.8-3.4,0.8c-1.6,0-3-0.3-4.3-1.5c-0.9-0.9-1.6-2.4-1.6-4.1c0-1.5,0.6-3.1,1.6-4.2
		c1.3-1.3,2.9-1.5,4.1-1.5s2.9,0.2,4.2,1.6c1.3,1.3,1.5,3,1.5,4.3V175.7z M200,173.7c0-0.1-0.2-0.8-0.7-1.2
		c-0.4-0.4-0.9-0.6-1.6-0.6c-0.9,0-1.4,0.4-1.8,0.7c-0.3,0.3-0.5,0.7-0.6,1.2H200z"/>
	<path class="st4" d="M208.9,163v17.5h-3.5V163H208.9z"/>
	<path class="st4" d="M223.3,180.5h-3.5v-1.3c-0.5,0.8-1.5,1.7-3.4,1.7c-1.6,0-2.7-0.5-3.7-1.5c-1.1-1.1-1.7-2.6-1.7-4.3
		c0-1.8,0.6-3.2,1.7-4.2c0.9-0.9,2.3-1.4,3.7-1.4c1.2,0,2.5,0.4,3.3,1.6v-8h3.5V180.5z M215.5,173.1c-0.5,0.5-0.8,1.2-0.8,2
		c0,0.8,0.3,1.5,0.8,2c0.5,0.5,1.2,0.7,1.8,0.7c0.6,0,1.4-0.3,2-0.8c0.4-0.4,0.8-1,0.8-1.9c0-0.9-0.4-1.5-0.8-2
		c-0.6-0.6-1.2-0.8-1.9-0.8C216.7,172.4,216.1,172.6,215.5,173.1z"/>
	<path class="st4" d="M237.1,175.7h-8c0,0.6,0.2,1.3,0.6,1.8c0.5,0.6,1.2,0.7,1.8,0.7c0.5,0,1-0.1,1.4-0.3c0,0,0.5-0.3,0.7-0.9
		l3.3,0.3c-0.5,1.5-1.4,2.3-2.1,2.7c-1,0.6-2.2,0.8-3.4,0.8c-1.6,0-3-0.3-4.3-1.5c-0.9-0.9-1.6-2.4-1.6-4.1c0-1.5,0.6-3.1,1.6-4.2
		c1.3-1.3,2.9-1.5,4.1-1.5s2.9,0.2,4.2,1.6c1.3,1.3,1.5,3,1.5,4.3V175.7z M233.9,173.7c0-0.1-0.2-0.8-0.7-1.2
		c-0.4-0.4-0.9-0.6-1.6-0.6c-0.9,0-1.4,0.4-1.8,0.7c-0.3,0.3-0.5,0.7-0.6,1.2H233.9z"/>
	<path class="st4" d="M239.3,169.8h3.5v1.7c0.3-0.6,0.8-1.2,1.3-1.5c0.6-0.4,1.2-0.5,1.8-0.5c0.4,0,0.7,0,1.1,0.2l-0.2,3.2
		c-0.5-0.2-1-0.4-1.6-0.4c-0.7,0-1.3,0.3-1.7,0.7c-0.8,0.8-0.8,2-0.8,2.9v4.3h-3.5V169.8z"/>
	<path class="st4" d="M252,163v8c0.9-1.2,2.2-1.6,3.3-1.6c1.5,0,2.8,0.6,3.7,1.4c1,1,1.7,2.4,1.7,4.2c0,1.7-0.6,3.2-1.7,4.3
		c-0.9,1-2.1,1.5-3.7,1.5c-1.9,0-2.9-0.9-3.4-1.7v1.3h-3.5V163H252z M252.6,173.2c-0.4,0.4-0.8,1.1-0.8,2c0,0.9,0.4,1.5,0.8,1.9
		c0.6,0.5,1.3,0.8,2,0.8c0.6,0,1.3-0.2,1.8-0.7c0.5-0.5,0.8-1.2,0.8-2c0-0.9-0.3-1.6-0.8-2c-0.6-0.5-1.2-0.7-1.8-0.7
		C253.8,172.4,253.1,172.6,252.6,173.2z"/>
	<path class="st4" d="M273.9,175.7h-8c0,0.6,0.2,1.3,0.6,1.8c0.5,0.6,1.2,0.7,1.8,0.7c0.5,0,1-0.1,1.4-0.3c0,0,0.5-0.3,0.7-0.9
		l3.3,0.3c-0.5,1.5-1.4,2.3-2.1,2.7c-1,0.6-2.2,0.8-3.4,0.8c-1.6,0-3-0.3-4.3-1.5c-0.9-0.9-1.6-2.4-1.6-4.1c0-1.5,0.6-3.1,1.6-4.2
		c1.3-1.3,2.9-1.5,4.1-1.5s2.9,0.2,4.2,1.6c1.3,1.3,1.5,3,1.5,4.3V175.7z M270.7,173.7c0-0.1-0.2-0.8-0.7-1.2
		c-0.4-0.4-0.9-0.6-1.6-0.6c-0.9,0-1.4,0.4-1.8,0.7c-0.3,0.3-0.5,0.7-0.6,1.2H270.7z"/>
	<path class="st4" d="M276,169.8h3.5v1.7c0.3-0.6,0.8-1.2,1.3-1.5c0.6-0.4,1.2-0.5,1.8-0.5c0.4,0,0.7,0,1.1,0.2l-0.2,3.2
		c-0.5-0.2-1-0.4-1.6-0.4c-0.7,0-1.3,0.3-1.7,0.7c-0.8,0.8-0.8,2-0.8,2.9v4.3H276V169.8z"/>
	<path class="st4" d="M293.4,169.8h3.5v10.1c0,1.5-0.1,3.2-1.3,4.6c-1.3,1.4-3.3,1.6-4.5,1.6c-1.4,0-3.1-0.2-4.5-1.4
		c-0.7-0.6-1.4-1.5-1.6-2.8h3.8c0.1,0.6,0.5,0.9,0.8,1.1c0.4,0.3,1,0.4,1.5,0.4c1,0,1.5-0.4,1.7-0.6c0.7-0.6,0.7-1.8,0.7-2.2v-1.2
		c-0.4,0.7-1.2,1.6-3.2,1.6c-1.7,0-2.9-0.5-3.9-1.5c-0.9-0.9-1.6-2.2-1.6-4c0-1.8,0.7-3.3,1.6-4.3c0.6-0.7,1.9-1.5,3.9-1.5
		c1.9,0,2.8,1,3.2,1.6V169.8z M289.1,173.1c-0.5,0.5-0.8,1.3-0.8,2c0,0.7,0.3,1.4,0.7,1.9c0.5,0.5,1.1,0.8,1.9,0.8
		c0.9,0,1.5-0.4,1.9-0.7c0.5-0.5,0.8-1.2,0.8-2c0-0.8-0.4-1.5-0.8-2c-0.5-0.5-1.2-0.7-1.9-0.7C290.2,172.4,289.5,172.7,289.1,173.1z
		"/>
	<path class="st4" d="M306.1,172.5c-0.5-0.3-1.2-0.6-1.9-0.6c-0.4,0-0.8,0.1-1,0.3c-0.1,0.1-0.2,0.3-0.2,0.5c0,0.2,0.2,0.4,0.3,0.5
		c0.2,0.1,0.6,0.2,1,0.4l0.9,0.3c0.6,0.2,1.2,0.4,1.8,0.9c0.6,0.6,0.8,1.2,0.8,2c0,1.4-0.6,2.3-1.1,2.8c-1.1,1.1-2.4,1.2-3.5,1.2
		c-1.4,0-3-0.3-4.4-1.5l1.5-2.3c0.3,0.3,0.8,0.6,1.2,0.8c0.5,0.2,1,0.3,1.4,0.3c0.2,0,0.8,0,1.1-0.2c0.2-0.2,0.4-0.4,0.4-0.7
		c0-0.2-0.1-0.4-0.4-0.6c-0.2-0.1-0.6-0.2-1.1-0.4l-0.9-0.3c-0.6-0.2-1.3-0.5-1.7-1c-0.5-0.5-0.8-1.1-0.8-1.9c0-1,0.4-1.9,1-2.5
		c1-0.9,2.3-1.1,3.2-1.1c1.6,0,2.7,0.4,3.6,0.9L306.1,172.5z"/>
</g>
</svg>
