<svg id="Layer_1" data-name="Layer 1" xmlns="http://www.w3.org/2000/svg" width="141" height="41" viewBox="0 0 141 41"><defs><style>.cls-1 { fill: #45555f; } .cls-2 { fill: #e35826; }</style></defs><path class="cls-1" d="M30.49 26.33h-1.23c-.52-4.58-1.74-5.09-4.38-5.09H14V35c0 3 1.1 3.55 3.48 3.55h9.92c4.51 0 5.86-1.74 7.48-7.28H36l-1 9.6H.78v-1.26h1.8c5.16 0 6.06-1.42 6.06-5.29V7.13C8.64 3.52 7.8 2 3.48 2H2.06V.75H33l.52 9h-1.17c-.84-5.48-2.45-6.64-4.77-6.64H14v15.81h11.52c2.32 0 3.42-1.09 3.74-4.83h1.22v12.24zM70.75 6.61C72.81 3.07 71.59 2 67.46 2V.75H82V2c-4.35.29-6.22 2-8 5.06L63.28 25.17v9.67c0 3.42 1.22 4.77 5.16 4.77h.84v1.22H51.55v-1.22h1.23c4 0 5.16-1.48 5.16-4.64v-9.09L46.46 8c-3.16-5-4.65-5.9-8.84-6V.75h17.15V2c-5 0-5.35 1.22-3.42 4.19l10.32 15.89zm26.64 28.04c0 3.61 1.1 5 5.16 5h2.13v1.22H86.82v-1.26h.9c3.35 0 4.32-.71 4.32-3.74V5.39C92 3 91.26 2 89 2h-3.22V.75c1.8-.06 5-.26 8.12-.39s6.25-.19 8-.19c13.47 0 16.56 6.45 16.56 11.41 0 7.54-6.06 12.31-15.6 12.31a26.23 26.23 0 0 1-5.48-.52v11.28zm0-12.5a16.54 16.54 0 0 0 3.48.52c7 0 11.54-4.77 11.54-11.28 0-5-2-10-10.57-10a26 26 0 0 0-4.45.26v20.49z"/><path class="cls-2" d="M140.22.66l-19.94 40.19h-2.66L137.57.66h2.66z"/></svg>