<?xml version="1.0" encoding="utf-8"?>
<!-- Generator: Adobe Illustrator 20.0.0, SVG Export Plug-In . SVG Version: 6.00 Build 0)  -->
<svg version="1.1" id="Layer_1" xmlns="http://www.w3.org/2000/svg" xmlns:xlink="http://www.w3.org/1999/xlink"
	 viewBox="0 0 217 45" width="217" height="45">
<style type="text/css">
	.st0{fill:#4B5763;}
	.st1{fill:#F15F27;}
	.st2{fill:#A7A9AC;}
</style>
<path class="st0" style="fill: #4B5763;" d="M18.1,16.1h-0.8C17,13.3,16.2,13,14.6,13H8v8.4c0,1.8,0.7,2.2,2.2,2.2h6.1c2.7,0,3.6-1.1,4.6-4.5h0.6L20.9,25
	h-21v-0.8h1.1c3.2,0,3.7-0.9,3.7-3.3V4.3c0-2.2-0.5-3.2-3.2-3.2H0.6V0.4h19l0.3,5.5h-0.7c-0.5-3.4-1.5-4.1-2.9-4.1H8v9.8H15
	c1.4,0,2.1-0.7,2.3-3h0.8C18.1,8.5,18.1,16.1,18.1,16.1z"/>
<path class="st0" style="fill: #4B5763;" d="M42.8,4c1.3-2.2,0.5-2.9-2-2.9V0.4h8.9v0.8c-2.7,0.2-3.9,1.3-5,3.1l-6.5,11.1v6c0,2.1,0.8,2.9,3.2,2.9h0.6V25
	H31v-0.8h0.8c2.5,0,3.2-0.9,3.2-2.9v-5.6l-7-11c-1.9-3-2.9-3.6-5.4-3.7V0.4H33v0.8c-3.1,0-3.3,0.8-2.1,2.6l6.4,9.8L42.8,4z"/>
<path class="st0" style="fill: #4B5763;" d="M59.1,21.2c0,2.2,0.7,3,3.2,3h1.3V25H52.7v-0.8h0.5c2,0,2.6-0.4,2.6-2.3V3.2c0-1.5-0.5-2.1-1.9-2.1h-2V0.4
	c1.1-0.1,3-0.2,5-0.2S60.8,0,61.8,0C70.1,0,72,4,72,7c0,4.6-3.7,7.5-9.6,7.5c-1.2,0-2.2-0.1-3.4-0.3v6.9H59.1z M59.1,13.5
	c0.5,0.1,1.4,0.3,2.2,0.3c4.3,0,7.1-2.9,7.1-6.9c0-3.1-1.2-6.1-6.5-6.1c-0.9,0-1.8,0-2.7,0.2V13.5z"/>
<path class="st1" style="fill: #F15F27;" d="M85.4,0.3L73.2,25h-1.6L83.8,0.3H85.4z"/>
<g>
	<path class="st0" style="fill: #4B5763;" d="M114.2,24.8v-12H99.6v12h-2V0.3h2v11h14.6v-11h2v24.5H114.2z"/>
	<path class="st0" style="fill: #4B5763;" d="M124.2,24.8V0.3h11.9v1.6h-10v9.5h9.5v1.6h-9.5v10.3h10v1.6L124.2,24.8L124.2,24.8z"/>
	<path class="st0" style="fill: #4B5763;" d="M157.6,24.8l-2.3-6.4h-11.6l-2.3,6.4h-2.1l9.4-24.5h2l9.3,24.5H157.6z M150.6,5.7c-0.4-1.2-0.8-2.3-1.1-3.3
		h-0.1c-0.2,0.5-0.4,1.1-0.5,1.6s-0.4,1.1-0.6,1.6l-4.1,11.2h10.5L150.6,5.7z"/>
	<path class="st0" style="fill: #4B5763;" d="M164.2,24.8V0.3h2v23h9.6v1.6H164.2z"/>
	<path class="st0" style="fill: #4B5763;" d="M183.2,1.9v23h-2v-23h-7.8V0.3h17.5v1.6H183.2z"/>
	<path class="st0" style="fill: #4B5763;" d="M211.5,24.8v-12h-14.6v12h-2V0.3h2v11h14.6v-11h2v24.5H211.5z"/>
</g>
<g>
	<path class="st0" style="fill: #4B5763;" d="M7.6,44.8H6.4l-1.3-4.7C5,39.9,5,39.7,4.9,39.5c-0.1-0.2-0.1-0.4-0.1-0.6l0,0c-0.1,0.4-0.1,0.8-0.2,1.2
		l-1.3,4.7H2l-1.8-7.1h1.1l1.2,4.6c0.1,0.2,0.1,0.5,0.2,0.7c0.1,0.2,0.1,0.5,0.1,0.7l0,0c0.1-0.5,0.2-0.9,0.3-1.3l1.3-4.7h1.1
		l1.3,4.7c0.1,0.2,0.1,0.4,0.2,0.6c0.1,0.2,0.1,0.4,0.1,0.6l0,0c0.1-0.2,0.1-0.4,0.1-0.6c0.1-0.2,0.1-0.4,0.1-0.6l1.2-4.8h0.9
		L7.6,44.8z"/>
	<path class="st0" style="fill: #4B5763;" d="M15.3,44.8v-3.3h-3.6v3.3h-0.9v-7.1h0.9v3h3.6v-3h0.9v7.1H15.3z"/>
	<path class="st0" style="fill: #4B5763;" d="M21.6,44.8l-2.3-3.2h-0.1v3.2h-0.9v-7.1c0.2,0,0.5,0,0.8-0.1c0.3,0,0.6,0,1,0c0.4,0,0.6,0.1,0.9,0.1
		s0.5,0.2,0.8,0.3c0.2,0.2,0.4,0.4,0.5,0.6c0.1,0.2,0.2,0.5,0.2,0.9c0,0.3-0.1,0.6-0.2,0.8c-0.1,0.2-0.2,0.5-0.5,0.6
		c-0.2,0.2-0.4,0.3-0.6,0.4c-0.2,0.1-0.5,0.2-0.8,0.2c0.1,0.1,0.2,0.2,0.3,0.4c0.1,0.1,0.2,0.2,0.3,0.4l1.9,2.5H21.6z M21.3,39.7
		c0-0.4-0.1-0.7-0.4-0.9c-0.2-0.2-0.6-0.3-1.2-0.3c-0.1,0-0.2,0-0.4,0c-0.1,0-0.2,0-0.3,0v2.5c0.1,0,0.1,0,0.2,0c0.1,0,0.2,0,0.4,0
		c0.5,0,0.9-0.1,1.2-0.4C21.2,40.4,21.3,40,21.3,39.7z"/>
	<path class="st0" style="fill: #4B5763;" d="M30.6,44.8L30,43.2h-3l-0.6,1.6h-1l2.6-7.1h1.1l2.6,7.1H30.6z M28.8,39.8c-0.1-0.2-0.1-0.4-0.2-0.5
		c-0.1-0.2-0.1-0.3-0.1-0.5l0,0c-0.1,0.2-0.1,0.3-0.1,0.5c-0.1,0.2-0.1,0.3-0.2,0.5l-0.9,2.6h2.5L28.8,39.8z"/>
	<path class="st0" style="fill: #4B5763;" d="M36.1,44.8l-2.3-3.2h-0.1v3.2h-0.9v-7.1c0.2,0,0.5,0,0.8-0.1c0.3,0,0.6,0,1,0c0.4,0,0.6,0.1,0.9,0.1
		c0.3,0.1,0.5,0.2,0.8,0.3c0.2,0.2,0.4,0.4,0.5,0.6c0.1,0.2,0.2,0.5,0.2,0.9c0,0.3-0.1,0.6-0.2,0.8c-0.1,0.2-0.2,0.5-0.5,0.6
		c-0.2,0.2-0.4,0.3-0.6,0.4c-0.2,0.1-0.5,0.2-0.8,0.2c0.1,0.1,0.2,0.2,0.3,0.4c0.1,0.1,0.2,0.2,0.3,0.4l1.9,2.5H36.1z M35.8,39.7
		c0-0.4-0.1-0.7-0.4-0.9c-0.2-0.2-0.6-0.3-1.2-0.3c-0.1,0-0.2,0-0.4,0s-0.2,0-0.3,0v2.5c0.1,0,0.1,0,0.2,0c0.1,0,0.2,0,0.4,0
		c0.5,0,0.9-0.1,1.2-0.4C35.7,40.4,35.8,40,35.8,39.7z"/>
	<path class="st0" style="fill: #4B5763;" d="M42.3,44.8c-0.4,0.1-0.7,0.1-1.1,0.1c-0.6,0-1.1-0.1-1.5-0.2c-0.4-0.2-0.8-0.4-1-0.7c-0.2-0.3-0.5-0.6-0.6-1.1
		C38,42.5,38,42,38,41.5c0-0.5,0.1-1.1,0.2-1.5c0.1-0.5,0.4-0.9,0.6-1.2c0.3-0.4,0.6-0.6,1.1-0.8c0.4-0.2,0.9-0.3,1.5-0.3
		c0.3,0,0.5,0,0.8,0.1c0.3,0.1,0.5,0.1,0.8,0.2l-0.2,0.9c-0.2-0.1-0.5-0.2-0.8-0.2c-0.3-0.1-0.5-0.1-0.8-0.1c-0.4,0-0.8,0.1-1.1,0.2
		c-0.3,0.2-0.5,0.4-0.7,0.6s-0.4,0.5-0.4,0.9C39,40.6,39,41,39,41.4c0,0.9,0.2,1.5,0.6,2c0.4,0.5,1,0.7,1.8,0.7
		c0.2,0,0.5-0.1,0.8-0.1c0.3-0.1,0.5-0.2,0.8-0.2l0.2,0.8C42.8,44.6,42.5,44.7,42.3,44.8z"/>
	<path class="st0" style="fill: #4B5763;" d="M49.2,44.8v-3.3h-3.6v3.3h-0.9v-7.1h0.9v3h3.6v-3h0.9v7.1H49.2z"/>
	<path class="st0" style="fill: #4B5763;" d="M52.1,44.8v-7.1h0.9v7.1H52.1z"/>
	<path class="st0" style="fill: #4B5763;" d="M57.2,38.6v6.3h-0.9v-6.3h-2v-0.8h5v0.8H57.2z"/>
	<path class="st0" style="fill: #4B5763;" d="M60.1,44.8v-7.1h3.6v0.8h-2.7v2.2h2.5v0.8h-2.5V44h2.7v0.8C63.8,44.8,60.1,44.8,60.1,44.8z"/>
	<path class="st0" style="fill: #4B5763;" d="M69.2,44.8c-0.4,0.1-0.7,0.1-1.1,0.1c-0.6,0-1.1-0.1-1.5-0.2c-0.4-0.2-0.8-0.4-1-0.7c-0.2-0.3-0.5-0.6-0.6-1.1
		c-0.1-0.4-0.2-0.9-0.2-1.4c0-0.5,0.1-1.1,0.2-1.5c0.1-0.5,0.4-0.9,0.6-1.2c0.3-0.4,0.6-0.6,1.1-0.8c0.4-0.2,0.9-0.3,1.5-0.3
		c0.3,0,0.5,0,0.8,0.1c0.3,0.1,0.5,0.1,0.8,0.2l-0.2,0.9c-0.2-0.1-0.5-0.2-0.8-0.2c-0.3-0.1-0.5-0.1-0.8-0.1c-0.4,0-0.8,0.1-1.1,0.2
		s-0.5,0.4-0.7,0.6c-0.2,0.2-0.4,0.5-0.4,0.9c-0.1,0.4-0.1,0.7-0.1,1.1c0,0.9,0.2,1.5,0.6,2c0.4,0.5,1,0.7,1.8,0.7
		c0.2,0,0.5-0.1,0.8-0.1c0.3-0.1,0.5-0.2,0.8-0.2l0.2,0.8C69.8,44.6,69.5,44.7,69.2,44.8z"/>
	<path class="st0" style="fill: #4B5763;" d="M73.8,38.6v6.3h-0.9v-6.3h-2v-0.8h5v0.8H73.8z"/>
	<path class="st0" style="fill: #4B5763;" d="M80.5,42.7c0,0.3-0.1,0.6-0.2,0.9c-0.1,0.3-0.3,0.5-0.5,0.7c-0.2,0.2-0.5,0.4-0.8,0.5
		c-0.3,0.1-0.7,0.2-1.1,0.2c-0.3,0-0.6,0-0.8-0.1s-0.5-0.1-0.7-0.2l0.1-0.9c0.2,0.1,0.5,0.2,0.7,0.2s0.5,0.1,0.8,0.1
		c0.2,0,0.4,0,0.6-0.1c0.2-0.1,0.4-0.1,0.5-0.2c0.1-0.1,0.2-0.2,0.4-0.4c0.1-0.2,0.1-0.4,0.1-0.5c0-0.3-0.1-0.5-0.2-0.6
		c-0.2-0.2-0.4-0.3-0.6-0.4c-0.2-0.1-0.5-0.2-0.8-0.3c-0.3-0.1-0.5-0.2-0.8-0.4c-0.2-0.2-0.4-0.4-0.6-0.6c-0.2-0.2-0.2-0.5-0.2-0.9
		c0-0.3,0.1-0.6,0.2-0.8c0.1-0.2,0.3-0.5,0.5-0.6c0.2-0.2,0.5-0.3,0.8-0.4s0.6-0.2,1.1-0.2c0.2,0,0.4,0,0.6,0s0.4,0.1,0.6,0.1
		L80,38.6c-0.2-0.1-0.4-0.1-0.6-0.1c-0.2-0.1-0.4-0.1-0.6-0.1c-0.5,0-0.8,0.1-1.1,0.3c-0.2,0.2-0.4,0.5-0.4,0.8
		c0,0.2,0.1,0.5,0.2,0.6c0.2,0.2,0.4,0.3,0.6,0.4c0.2,0.1,0.5,0.2,0.8,0.3c0.3,0.1,0.5,0.2,0.8,0.4c0.2,0.2,0.4,0.4,0.6,0.6
		C80.4,42.1,80.5,42.4,80.5,42.7z"/>
	<path class="st2" style="fill: #A7A9AC;" d="M86.6,44.8v-7.1h0.6v7.1H86.6z"/>
	<path class="st0" style="fill: #4B5763;" d="M97.5,42.7c0,0.3-0.1,0.6-0.2,0.9c-0.1,0.3-0.3,0.5-0.5,0.7c-0.2,0.2-0.5,0.4-0.8,0.5
		c-0.3,0.1-0.7,0.2-1.1,0.2c-0.3,0-0.6,0-0.8-0.1c-0.2-0.1-0.5-0.1-0.7-0.2l0.1-0.9c0.2,0.1,0.5,0.2,0.7,0.2
		c0.2,0.1,0.5,0.1,0.8,0.1c0.2,0,0.4,0,0.6-0.1c0.2-0.1,0.4-0.1,0.5-0.2c0.1-0.1,0.2-0.2,0.4-0.4c0.1-0.2,0.1-0.4,0.1-0.5
		c0-0.3-0.1-0.5-0.2-0.6c-0.2-0.2-0.4-0.3-0.6-0.4c-0.2-0.1-0.5-0.2-0.8-0.3c-0.3-0.1-0.5-0.2-0.8-0.4c-0.2-0.2-0.4-0.4-0.6-0.6
		c-0.2-0.2-0.2-0.5-0.2-0.9c0-0.3,0.1-0.6,0.2-0.8c0.1-0.2,0.3-0.5,0.5-0.6c0.2-0.2,0.5-0.3,0.8-0.4c0.3-0.1,0.6-0.2,1.1-0.2
		c0.2,0,0.4,0,0.6,0c0.2,0,0.4,0.1,0.6,0.1L97,38.6c-0.2-0.1-0.4-0.1-0.6-0.1c-0.2-0.1-0.4-0.1-0.6-0.1c-0.5,0-0.8,0.1-1.1,0.3
		c-0.2,0.2-0.4,0.5-0.4,0.8c0,0.2,0.1,0.5,0.2,0.6c0.2,0.2,0.4,0.3,0.6,0.4c0.2,0.1,0.5,0.2,0.8,0.3c0.3,0.1,0.5,0.2,0.8,0.4
		c0.2,0.2,0.4,0.4,0.6,0.6C97.5,42.1,97.5,42.4,97.5,42.7z"/>
	<path class="st0" style="fill: #4B5763;" d="M100.9,38.6v6.3h-0.9v-6.3h-2v-0.8h5v0.8H100.9z"/>
	<path class="st0" style="fill: #4B5763;" d="M107.5,44.8l-0.6-1.6h-3l-0.6,1.6h-1l2.6-7.1h1.1l2.6,7.1H107.5z M105.7,39.8c-0.1-0.2-0.1-0.4-0.2-0.5
		c-0.1-0.2-0.1-0.3-0.1-0.5l0,0c-0.1,0.2-0.1,0.3-0.1,0.5c-0.1,0.2-0.1,0.3-0.2,0.5l-0.9,2.6h2.5L105.7,39.8z"/>
	<path class="st0" style="fill: #4B5763;" d="M113.9,44.8l-2.7-4.4c-0.2-0.2-0.3-0.5-0.4-0.8c-0.1-0.2-0.2-0.5-0.4-0.7c0,0.2,0,0.4,0,0.7c0,0.3,0,0.6,0,0.9
		s0,0.6,0,1c0,0.4,0,0.6,0,0.9v2.3h-0.9v-7.1h1.2l2.6,4.2c0.2,0.2,0.3,0.5,0.5,0.8c0.1,0.3,0.3,0.5,0.4,0.8c0-0.2,0-0.5-0.1-0.8
		c0-0.3,0-0.6,0-1c0-0.4,0-0.7,0-1.1c0-0.4,0-0.6,0-0.9v-2h0.9v7.1L113.9,44.8L113.9,44.8z"/>
	<path class="st0" style="fill: #4B5763;" d="M117.2,44.8v-7.1h0.9V44h2.5v0.8H117.2z"/>
	<path class="st0" style="fill: #4B5763;" d="M121.6,44.8v-7.1h3.6v0.8h-2.7v2.2h2.5v0.8h-2.5V44h2.7v0.8C125.2,44.8,121.6,44.8,121.6,44.8z"/>
	<path class="st0" style="fill: #4B5763;" d="M129,42.3v2.5h-0.9v-2.5l-2.2-4.5h1.1l1.1,2.4c0.2,0.4,0.4,0.8,0.5,1.2l0,0c0.1-0.2,0.2-0.4,0.3-0.6
		s0.2-0.5,0.4-0.7l1.1-2.3h1L129,42.3z"/>
	<path class="st0" style="fill: #4B5763;" d="M139.2,42.7c0,0.2-0.1,0.5-0.1,0.7c-0.1,0.2-0.2,0.5-0.4,0.7c-0.2,0.2-0.5,0.4-0.8,0.5s-0.8,0.2-1.3,0.2
		c-0.2,0-0.5,0-0.8,0s-0.6,0-1,0v-7.1c0.2,0,0.6,0,0.9,0c0.4,0,0.7,0,1.2,0c0.8,0,1.3,0.2,1.7,0.5c0.4,0.3,0.6,0.7,0.6,1.2
		c0,0.4-0.1,0.7-0.3,1c-0.2,0.3-0.5,0.5-0.9,0.6l0,0c0.2,0.1,0.5,0.1,0.6,0.2c0.2,0.1,0.4,0.2,0.5,0.4c0.1,0.2,0.2,0.3,0.2,0.5
		C139.1,42.3,139.2,42.5,139.2,42.7z M137.9,39.6c0-0.2,0-0.3-0.1-0.4c-0.1-0.1-0.1-0.2-0.2-0.4s-0.2-0.2-0.4-0.2
		c-0.2-0.1-0.4-0.1-0.7-0.1c-0.2,0-0.4,0-0.5,0c-0.2,0-0.3,0-0.5,0v2.3c0.1,0,0.2,0,0.3,0s0.2,0,0.4,0c0.6,0,1-0.1,1.3-0.3
		C137.7,40.3,137.9,40,137.9,39.6z M138.1,42.7c0-0.2-0.1-0.4-0.2-0.6c-0.1-0.2-0.2-0.3-0.4-0.4s-0.4-0.2-0.6-0.2
		c-0.2-0.1-0.5-0.1-0.8-0.1c-0.1,0-0.2,0-0.3,0c-0.2,0-0.2,0-0.4,0V44c0.2,0.1,0.5,0.1,0.9,0.1c0.6,0,1-0.1,1.3-0.4
		C138,43.4,138.1,43.1,138.1,42.7z"/>
	<path class="st0" style="fill: #4B5763;" d="M140.6,44.8v-7.1h3.6v0.8h-2.7v2.2h2.5v0.8h-2.5V44h2.7v0.8C144.2,44.8,140.6,44.8,140.6,44.8z"/>
	<path class="st0" style="fill: #4B5763;" d="M150.1,44.8l-0.6-1.6h-3l-0.6,1.6h-1l2.6-7.1h1.1l2.6,7.1H150.1z M148.4,39.8c-0.1-0.2-0.1-0.4-0.2-0.5
		c-0.1-0.2-0.1-0.3-0.1-0.5l0,0c-0.1,0.2-0.1,0.3-0.1,0.5s-0.1,0.3-0.2,0.5l-0.9,2.6h2.5L148.4,39.8z"/>
	<path class="st0" style="fill: #4B5763;" d="M159,44.8l-0.6-4.1c-0.1-0.4-0.1-0.7-0.1-1c-0.1-0.3-0.1-0.5-0.1-0.8l0,0c-0.1,0.2-0.1,0.4-0.1,0.6
		c-0.1,0.2-0.1,0.5-0.2,0.7l-1.5,4.6h-1.1l-1.4-4.3c-0.1-0.3-0.2-0.6-0.2-0.8c-0.1-0.2-0.1-0.5-0.2-0.8l0,0c0,0.3-0.1,0.6-0.1,0.9
		c-0.1,0.3-0.1,0.6-0.1,0.9l-0.5,4h-1.1l1.1-7.1h1.2l1.5,4.4c0.1,0.2,0.1,0.4,0.2,0.6c0.1,0.2,0.1,0.5,0.2,0.8l0,0
		c0.1-0.2,0.1-0.5,0.2-0.7c0.1-0.2,0.1-0.4,0.2-0.6l1.5-4.5h1.2l1.1,7.1L159,44.8L159,44.8z"/>
	<path class="st0" style="fill: #4B5763;" d="M165.7,44.8l-0.6-1.6h-3l-0.6,1.6h-1l2.6-7.1h1.1l2.6,7.1H165.7z M164,39.8c-0.1-0.2-0.1-0.4-0.2-0.5
		c-0.1-0.2-0.1-0.3-0.1-0.5l0,0c-0.1,0.2-0.1,0.3-0.1,0.5c-0.1,0.2-0.1,0.3-0.2,0.5l-0.9,2.6h2.5L164,39.8z"/>
	<path class="st0" style="fill: #4B5763;" d="M172.2,44.8l-2.7-4.4c-0.2-0.2-0.3-0.5-0.4-0.8c-0.1-0.2-0.2-0.5-0.4-0.7c0,0.2,0,0.4,0,0.7c0,0.3,0,0.6,0,0.9
		s0,0.6,0,1c0,0.4,0,0.6,0,0.9v2.3h-0.9v-7.1h1.2l2.6,4.2c0.2,0.2,0.3,0.5,0.5,0.8c0.2,0.2,0.3,0.5,0.4,0.8c0-0.2,0-0.5-0.1-0.8
		c0-0.3,0-0.6,0-1c0-0.4,0-0.7,0-1.1c0-0.4,0-0.6,0-0.9v-2h0.9v7.1L172.2,44.8L172.2,44.8z"/>
	<path class="st0" style="fill: #4B5763;" d="M183.7,45c-0.2-0.2-0.5-0.4-0.8-0.6c-0.3-0.2-0.5-0.4-0.7-0.5c-0.4,0.3-0.8,0.5-1.2,0.8
		c-0.5,0.2-1,0.3-1.6,0.3c-0.4,0-0.7-0.1-1-0.2c-0.3-0.1-0.5-0.2-0.7-0.4c-0.2-0.2-0.4-0.4-0.4-0.6c-0.1-0.2-0.2-0.5-0.2-0.8
		c0-0.5,0.1-0.9,0.4-1.2c0.3-0.4,0.6-0.7,1.1-1.1c-0.2-0.2-0.4-0.4-0.5-0.6c-0.1-0.2-0.2-0.4-0.3-0.5c-0.1-0.1-0.1-0.3-0.2-0.4
		c-0.1-0.1-0.1-0.3-0.1-0.4c0-0.2,0.1-0.4,0.1-0.6c0.1-0.2,0.2-0.4,0.4-0.5c0.2-0.1,0.4-0.2,0.6-0.4c0.2-0.1,0.5-0.1,0.8-0.1
		c0.5,0,0.9,0.1,1.2,0.4c0.3,0.3,0.4,0.6,0.4,1c0,0.4-0.1,0.7-0.3,1c-0.2,0.4-0.5,0.6-1,1.1c0.2,0.2,0.3,0.4,0.5,0.5
		c0.2,0.2,0.4,0.4,0.6,0.5c0.2,0.2,0.4,0.4,0.6,0.6c0.2,0.2,0.4,0.4,0.6,0.5l0,0c0.2-0.4,0.4-0.7,0.5-1.2c0.1-0.5,0.2-0.9,0.2-1.5
		h0.9c0,0.6-0.1,1.2-0.2,1.7c-0.2,0.5-0.4,1-0.8,1.4c0.3,0.2,0.5,0.4,0.8,0.6s0.5,0.4,0.6,0.5L183.7,45z M181.6,43.4
		c-0.2-0.2-0.4-0.4-0.6-0.6c-0.2-0.2-0.4-0.4-0.6-0.6c-0.2-0.2-0.4-0.4-0.6-0.6c-0.2-0.2-0.4-0.4-0.5-0.5c-0.4,0.3-0.6,0.6-0.8,0.8
		s-0.2,0.5-0.2,0.8c0,0.2,0.1,0.4,0.1,0.5c0.1,0.2,0.2,0.3,0.3,0.4c0.1,0.1,0.3,0.2,0.5,0.3c0.2,0.1,0.4,0.1,0.6,0.1
		c0.4,0,0.8-0.1,1.1-0.2C181.1,43.8,181.3,43.6,181.6,43.4z M180.2,38.6c0-0.2-0.1-0.4-0.2-0.6c-0.1-0.2-0.4-0.2-0.6-0.2
		c-0.2,0-0.5,0.1-0.6,0.2c-0.2,0.2-0.2,0.4-0.2,0.6c0,0.2,0.1,0.4,0.2,0.6c0.1,0.2,0.3,0.5,0.6,0.8c0.3-0.2,0.5-0.5,0.6-0.7
		C180.2,39.2,180.2,38.9,180.2,38.6z"/>
	<path class="st0" style="fill: #4B5763;" d="M191.9,42.7c0,0.3-0.1,0.6-0.2,0.9c-0.1,0.3-0.3,0.5-0.5,0.7c-0.2,0.2-0.5,0.4-0.8,0.5
		c-0.3,0.1-0.7,0.2-1.1,0.2c-0.3,0-0.6,0-0.8-0.1c-0.2-0.1-0.5-0.1-0.7-0.2l0.1-0.9c0.2,0.1,0.5,0.2,0.7,0.2s0.5,0.1,0.8,0.1
		c0.2,0,0.4,0,0.6-0.1s0.4-0.1,0.5-0.2c0.1-0.1,0.2-0.2,0.4-0.4c0.1-0.2,0.1-0.4,0.1-0.5c0-0.3-0.1-0.5-0.2-0.6
		c-0.2-0.2-0.4-0.3-0.6-0.4c-0.2-0.1-0.5-0.2-0.8-0.3c-0.3-0.1-0.5-0.2-0.8-0.4c-0.2-0.2-0.4-0.4-0.6-0.6c-0.2-0.2-0.2-0.5-0.2-0.9
		c0-0.3,0.1-0.6,0.2-0.8c0.1-0.2,0.3-0.5,0.5-0.6c0.2-0.2,0.5-0.3,0.8-0.4s0.6-0.2,1.1-0.2c0.2,0,0.4,0,0.6,0c0.2,0,0.4,0.1,0.6,0.1
		l-0.1,0.8c-0.2-0.1-0.4-0.1-0.6-0.1c-0.2-0.1-0.4-0.1-0.6-0.1c-0.5,0-0.8,0.1-1.1,0.3c-0.2,0.2-0.4,0.5-0.4,0.8
		c0,0.2,0.1,0.5,0.2,0.6c0.2,0.2,0.4,0.3,0.6,0.4c0.2,0.1,0.5,0.2,0.8,0.3c0.3,0.1,0.5,0.2,0.8,0.4c0.2,0.2,0.4,0.4,0.6,0.6
		C191.9,42.1,191.9,42.4,191.9,42.7z"/>
	<path class="st0" style="fill: #4B5763;" d="M193.3,44.8v-7.1h3.6v0.8h-2.7v2.2h2.5v0.8h-2.5V44h2.7v0.8C197,44.8,193.3,44.8,193.3,44.8z"/>
	<path class="st0" style="fill: #4B5763;" d="M202.9,44.8l-0.6-1.6h-3l-0.6,1.6h-1l2.6-7.1h1.1l2.6,7.1H202.9z M201,39.8c-0.1-0.2-0.1-0.4-0.2-0.5
		c-0.1-0.2-0.1-0.3-0.1-0.5l0,0c-0.1,0.2-0.1,0.3-0.1,0.5c-0.1,0.2-0.1,0.3-0.2,0.5l-0.9,2.6h2.5L201,39.8z"/>
	<path class="st0" style="fill: #4B5763;" d="M208.3,44.8l-2.3-3.2h-0.1v3.2h-0.9v-7.1c0.2,0,0.5,0,0.8-0.1c0.3,0,0.6,0,1,0c0.4,0,0.6,0.1,0.9,0.1
		s0.5,0.2,0.8,0.3c0.2,0.2,0.4,0.4,0.5,0.6c0.1,0.2,0.2,0.5,0.2,0.9c0,0.3-0.1,0.6-0.2,0.8c-0.1,0.2-0.2,0.5-0.5,0.6
		c-0.2,0.2-0.4,0.3-0.6,0.4s-0.5,0.2-0.8,0.2c0.1,0.1,0.2,0.2,0.3,0.4c0.1,0.1,0.2,0.2,0.3,0.4l1.9,2.5H208.3z M208.1,39.7
		c0-0.4-0.1-0.7-0.4-0.9c-0.2-0.2-0.6-0.3-1.2-0.3c-0.1,0-0.2,0-0.4,0c-0.1,0-0.2,0-0.3,0v2.5c0.1,0,0.1,0,0.2,0s0.2,0,0.4,0
		c0.5,0,0.9-0.1,1.2-0.4C207.9,40.4,208.1,40,208.1,39.7z"/>
	<path class="st0" style="fill: #4B5763;" d="M214.5,42.7c0,0.3-0.1,0.6-0.2,0.9c-0.1,0.3-0.3,0.5-0.5,0.7c-0.2,0.2-0.5,0.4-0.8,0.5
		c-0.3,0.1-0.7,0.2-1.1,0.2c-0.3,0-0.6,0-0.8-0.1c-0.2-0.1-0.5-0.1-0.7-0.2l0.1-0.9c0.2,0.1,0.5,0.2,0.7,0.2s0.5,0.1,0.8,0.1
		c0.2,0,0.4,0,0.6-0.1c0.2-0.1,0.4-0.1,0.5-0.2c0.1-0.1,0.2-0.2,0.4-0.4c0.1-0.2,0.1-0.4,0.1-0.5c0-0.3-0.1-0.5-0.2-0.6
		c-0.2-0.2-0.4-0.3-0.6-0.4c-0.2-0.1-0.5-0.2-0.8-0.3c-0.3-0.1-0.5-0.2-0.8-0.4c-0.2-0.2-0.4-0.4-0.6-0.6c-0.2-0.2-0.2-0.5-0.2-0.9
		c0-0.3,0.1-0.6,0.2-0.8c0.1-0.2,0.3-0.5,0.5-0.6c0.2-0.2,0.5-0.3,0.8-0.4s0.6-0.2,1.1-0.2c0.2,0,0.4,0,0.6,0c0.2,0,0.4,0.1,0.6,0.1
		l-0.1,0.8c-0.2-0.1-0.4-0.1-0.6-0.1c-0.2-0.1-0.4-0.1-0.6-0.1c-0.5,0-0.8,0.1-1.1,0.3c-0.2,0.2-0.4,0.5-0.4,0.8
		c0,0.2,0.1,0.5,0.2,0.6c0.2,0.2,0.4,0.3,0.6,0.4c0.2,0.1,0.5,0.2,0.8,0.3c0.3,0.1,0.5,0.2,0.8,0.4c0.2,0.2,0.4,0.4,0.6,0.6
		C214.4,42.1,214.5,42.4,214.5,42.7z"/>
</g>
</svg>
