<svg id="Layer_1" data-name="Layer 1" xmlns="http://www.w3.org/2000/svg" width="33" height="33" viewBox="0 0 33 33"><defs><style>.cls-1 { fill: none; } .cls-2 { fill: #f05f27; } .cls-3 { fill: #fff; } .cls-4 { clip-path: url(#clip-path); }</style><clipPath id="clip-path"><path class="cls-1" d="M33 16.48A16.48 16.48 0 1 1 16.47 0 16.48 16.48 0 0 1 33 16.48"/></clipPath></defs><path class="cls-2" d="M33 16.48A16.48 16.48 0 1 1 16.47 0 16.48 16.48 0 0 1 33 16.48"/><path class="cls-3" d="M12.18 13.5l-.42 4.19h2.1v1.18h-2.21l-.46 4.33H9.82l.46-4.33H6.72l-.46 4.33H4.92l.46-4.33H3.23v-1.18H5.5l.41-4.19H3.79v-1.18h2.26l.44-4.16h1.37l-.46 4.16H11l.44-4.17h1.34l-.44 4.17h2.11v1.18h-2.27zm-4.9 0l-.42 4.19h3.56l.42-4.19H7.28z"/><path class="cls-4 cls-3" d="M15.72 28.16v-4.41h6.26V8.27l-5.57 2.18-.81-4.64 9.57-3.33 1.92.71v20.56h5.45v4.41H15.72z"/></svg>