<?xml version="1.0" encoding="UTF-8" standalone="no"?>
<svg width="20px" height="20px" viewBox="0 0 20 20" version="1.1" xmlns="http://www.w3.org/2000/svg" xmlns:xlink="http://www.w3.org/1999/xlink">
    <g id="plus" fill="#FFFFFF">
        <path d="M8.5,19.5 L8.5,11.5 L0.5,11.5 L0.5,8.5 L8.5,8.5 L8.5,0.5 L11.5,0.5 L11.5,8.5 L19.5,8.5 L19.5,11.5 L11.5,11.5 L11.5,19.5 L8.5,19.5 L8.5,19.5 Z" class="bg"></path>
        <path d="M11,1 L11,9 L19,9 L19,11 L11,11 L11,19 L9,19 L9,11 L1,11 L1,9 L9,9 L9,1 L11,1 L11,1 Z M12,0 L8,0 L8,8 L0,8 L0,12 L8,12 L8,20 L12,20 L12,12 L20,12 L20,8 L12,8 L12,0 L12,0 L12,0 Z" class="stroke"></path>
    </g>
</svg>