<?xml version="1.0" encoding="utf-8"?>
<!-- Generator: Adobe Illustrator 21.1.0, SVG Export Plug-In . SVG Version: 6.00 Build 0)  -->
<svg version="1.1" id="Layer_1" xmlns="http://www.w3.org/2000/svg" xmlns:xlink="http://www.w3.org/1999/xlink" x="0px" y="0px"
	 viewBox="0 0 359.5 156" style="enable-background:new 0 0 359.5 156;" xml:space="preserve">
<style type="text/css">
	.st0{display:none;}
	.st1{fill:#FFFFFF;stroke:#FFFFFF;stroke-width:2;stroke-miterlimit:10;}
	.st2{fill:#654EA1;}
	.st3{fill:#039B76;}
</style>
<g id="Layer_2" class="st0">
</g>
<g>
	<g>
		<g>
			<path class="st1" d="M90.7,94.7l23.1,50.8c0.7,1.2,1.2,3,1.2,3.5c0,0.9-0.7,1.6-2,1.6H96.2c-1.3,0-2.5-0.7-2.9-1.6L69.4,97
				c-0.2-0.2-0.4-0.4-0.7-0.4h-34c-0.4,0-0.7,0.2-0.8,0.7L23.7,148c-0.2,1.3-1.8,2.7-3.1,2.7H6.2c-1.3,0-2.2-1.2-2.2-2.2
				c0-0.4,0.4-2.7,2.2-9.6l27.4-132c0.2-1,1-2.1,2.6-2.2H89c29.3,0,44.1,16.5,44.1,39.1C133,68.4,116.2,89.6,90.7,94.7z M49.7,22.2
				L37.3,79.6c-0.1,0.5,0.3,1,0.8,1h32.8c21.1,0,42.4-14.1,42.4-36.9c0.2-13.7-8.1-22.1-27.5-22.1H50.5
				C50.1,21.6,49.8,21.8,49.7,22.2z"/>
			<path class="st1" d="M158.5,147.2c-0.2,1.3-2.9,3.4-4.2,3.4h-12.1c-1.3,0-3.1-2-3.1-3c0-0.7,0.3-2.5,0.7-4.6l10-57
				c0.4-1.4,2.8-3.2,4.1-3.2h12.2c1.3,0,3,1.5,2.9,2.6L158.5,147.2z"/>
			<path class="st1" d="M229.2,66.8l-13.7,79.9c-0.2,1.3-3.1,3.9-4.4,3.9l-12.2,0.2c-1.3,0-3.1-2.5-3.1-3.7c0-0.4,0.2-1.6,0.4-2.7
				l13.2-77.7h-17.8c-1.3,0-2.7-1.8-2.5-3.1l2-10.8c0.2-1.3,2.5-3.1,3.8-3.1h17.8l3.6-16.4C221,8.4,227.7,3,250.7,5.5
				c7.8,0.8,10.4,1.4,13.8,3.2c2,1.2,3.9,0.8,1.3,6.5l-3.8,7.6c-0.9,1.8-2.1,1.6-4.4,0.5c-4.5-1.8-7.3-1.9-7.3-1.9
				c-7.2-0.7-11.7-1.9-14.4,11.8l-3.6,16.4h38.5l4-20.8c0.2-1.3,3.4-3.8,4.7-3.8h12.1c1.3,0,3.1,2.5,2.9,3.8l-4,20.8h17.8
				c1.3,0,2.5,1.6,2.5,2.9c0,0.2-0.2,1.6-0.4,2.7l-1.6,8.3c-0.2,1.3-2.5,3.1-3.8,3.1h-17.8l-8.3,51.6c-0.4,2.5-0.9,5.3-0.9,7.2
				c0,8.3,5.3,8.6,10.9,8.6c4.4,0,6.7,0.1,10.5-2c2.5-1.3,3.6-0.2,4.3,1.6c0,0,2.7,12.3,0.4,13.4c-4.9,2.7-13,3.1-21.5,3.1
				c-14.8,0-24.3-6.7-24.3-21.2c0-2.9,0.2-7.4,0.9-10.8l8.3-51.6h-38.3V66.8z"/>
		</g>
		<g>
			<path class="st2" d="M327.6,45.9c0.2-1.1,1.2-2.3,3.9-0.9c0,0,23.1,9,25.4,11.3c1.2,1.2,1.2,2.6,0,3.8
				c-2.1,2-27.2,11.5-29.8,12.3c-1.3,0.4-3.3-0.2-3-2.4C324.4,66.6,327.6,45.9,327.6,45.9z"/>
		</g>
	</g>
</g>
<path class="st3" d="M176.9,59.5c0,8.9-8.2,16-17,16s-15-7.2-15-16s9.2-16,18-16S176.9,50.6,176.9,59.5z"/>
</svg>
