<svg id="Layer_1" data-name="Layer 1" xmlns="http://www.w3.org/2000/svg" width="23" height="19" viewBox="0 0 23 19"><defs><style>.cls-1 { fill: #858b92; }</style></defs><path class="cls-1" d="M23 2.43a9.43 9.43 0 0 1-2.71.74A4.73 4.73 0 0 0 22.36.56a9.45 9.45 0 0 1-3 1.15 4.72 4.72 0 0 0-8 4.3A13.4 13.4 0 0 1 1.6 1.08a4.72 4.72 0 0 0 1.46 6.3 4.7 4.7 0 0 1-2.14-.59v.06a4.72 4.72 0 0 0 3.79 4.63 4.73 4.73 0 0 1-2.13.08A4.72 4.72 0 0 0 7 14.83a9.47 9.47 0 0 1-5.86 2A9.57 9.57 0 0 1 0 16.79a13.36 13.36 0 0 0 7.23 2.12A13.33 13.33 0 0 0 20.66 5.48v-.61A9.59 9.59 0 0 0 23 2.43z"/></svg>